<svg width="1016" height="2541" viewBox="0 0 1016 2541" fill="none" xmlns="http://www.w3.org/2000/svg">
<g opacity="0.25">
<path d="M513.213 1770.17C579.061 1770.17 644.265 1777.79 705.101 1792.6C765.937 1807.41 821.214 1829.11 867.776 1856.47C914.338 1883.83 951.273 1916.31 976.472 1952.06C1001.67 1987.81 1014.64 2026.13 1014.64 2064.82C1014.64 2103.51 1001.67 2141.83 976.472 2177.58C951.273 2213.32 914.338 2245.81 867.776 2273.17C821.214 2300.53 765.937 2322.23 705.101 2337.04C644.265 2351.85 579.062 2359.47 513.213 2359.47" stroke="black" stroke-dasharray="0 20"/>
<path d="M502.786 1180.53C436.938 1180.53 371.734 1188.15 310.898 1202.96C250.062 1217.76 194.785 1239.47 148.223 1266.83C101.661 1294.19 64.7264 1326.67 39.5273 1362.42C14.3282 1398.17 1.35844 1436.48 1.35844 1475.18C1.35844 1513.87 14.3282 1552.19 39.5273 1587.93C64.7264 1623.68 101.661 1656.16 148.223 1683.52C194.785 1710.89 250.062 1732.59 310.898 1747.4C371.734 1762.2 436.938 1769.83 502.786 1769.83" stroke="black" stroke-dasharray="0 20"/>
<path d="M502.787 2358.11C461.53 2358.11 420.676 2365.73 382.558 2380.54C344.441 2395.34 309.807 2417.05 280.633 2444.41C251.459 2471.77 228.317 2504.25 212.528 2540" stroke="black" stroke-dasharray="0 20"/>
<path d="M513.214 590.639C579.062 590.639 644.266 598.261 705.102 613.068C765.938 627.876 821.215 649.579 867.777 676.94C914.339 704.301 951.274 736.783 976.473 772.531C1001.67 808.279 1014.64 846.594 1014.64 885.288C1014.64 923.982 1001.67 962.297 976.473 998.045C951.274 1033.79 914.339 1066.28 867.777 1093.64C821.215 1121 765.938 1142.7 705.102 1157.51C644.266 1172.32 579.063 1179.94 513.214 1179.94" stroke="black" stroke-dasharray="0 20"/>
<path d="M502.787 1.0001C436.939 1.00011 371.735 8.62142 310.899 23.4289C250.063 38.2364 194.786 59.9401 148.224 87.3007C101.662 114.661 64.7274 147.143 39.5283 182.892C14.3292 218.64 1.35943 256.955 1.35943 295.649C1.35943 334.343 14.3292 372.658 39.5283 408.406C64.7274 444.154 101.662 476.636 148.224 503.997C194.786 531.358 250.063 553.061 310.899 567.869C371.735 582.676 436.939 590.297 502.787 590.297" stroke="black" stroke-dasharray="0 20"/>
</g>
</svg>
