<svg width="72" height="72" viewBox="0 0 72 72" fill="none" xmlns="http://www.w3.org/2000/svg">
<rect width="72" height="72" rx="36" fill="#F7BB3D"/>
<g opacity="0.3">
<path d="M27.8333 46.9662C22.6787 46.9662 18.5 49.752 18.5 53.1884H37.1667C37.1667 49.752 32.988 46.9662 27.8333 46.9662Z" fill="white"/>
<path d="M27.8332 43.6989C31.2697 43.6989 34.0555 40.9131 34.0555 37.4767C34.0555 34.0403 31.2697 31.2545 27.8332 31.2545C24.3968 31.2545 21.611 34.0403 21.611 37.4767C21.611 40.9131 24.3968 43.6989 27.8332 43.6989Z" fill="white"/>
</g>
<path d="M37.5465 20.8502H53.9993C54.8254 20.8502 55.4951 21.5198 55.4951 22.3459V38.7987L50.5094 34.6568C50.2409 34.4337 49.9028 34.3116 49.5536 34.3116H37.5465C36.7205 34.3116 36.0508 33.6419 36.0508 32.8159V22.3459C36.0508 21.5198 36.7205 20.8502 37.5465 20.8502Z" fill="white" fill-opacity="0.1"/>
<path d="M46.82 15.4662H30.3672C29.5411 15.4662 28.8715 16.1359 28.8715 16.9619V33.4148L33.8571 29.2728C34.1256 29.0498 34.4638 28.9276 34.8129 28.9276H46.82C47.6461 28.9276 48.3157 28.258 48.3157 27.4319V16.9619C48.3157 16.1359 47.6461 15.4662 46.82 15.4662Z" fill="white"/>
</svg>
