<svg width="35" height="32" viewBox="0 0 35 32" fill="none" xmlns="http://www.w3.org/2000/svg">
<path d="M33.9831 29.8491C31.5448 27.8391 29.668 25.2562 28.8209 23.3048C30.5988 20.0839 31.1398 16.3143 30.3405 12.7161C29.5412 9.11782 27.4577 5.94306 24.4878 3.79818C21.5179 1.65331 17.8698 0.688646 14.2404 1.08845C10.611 1.48825 7.25454 3.22449 4.81218 5.96555C2.36983 8.70661 1.01273 12.2604 1.00009 15.9481C0.987451 19.6358 2.32016 23.1989 4.74367 25.957C7.16718 28.7151 10.5116 30.4748 14.1382 30.8999C17.7648 31.3251 21.4194 30.386 24.4039 28.2619C29.1051 30.0391 34.3353 30.1433 33.9831 29.8491Z" fill="white" stroke="#383838" stroke-width="0.678055" stroke-miterlimit="10"/>
<path d="M8.66699 10.7583C12.1367 7.91939 17.5052 8.86568 18.1314 13.9141C18.5703 17.4189 15.2926 27.4761 23.2164 24.9938" stroke="#6606EF" stroke-width="1.01708" stroke-miterlimit="10"/>
<path d="M9.53722 11.824C9.32706 11.9949 9.07097 12.0998 8.80127 12.1254C8.53156 12.151 8.26031 12.0961 8.02175 11.9677C7.78319 11.8393 7.58801 11.6432 7.46082 11.404C7.33363 11.1647 7.28014 10.8932 7.3071 10.6236C7.33406 10.3541 7.44025 10.0985 7.61229 9.88923C7.78433 9.67995 8.0145 9.5263 8.27376 9.44769C8.53302 9.36907 8.80976 9.369 9.06906 9.44749C9.32836 9.52598 9.5586 9.67951 9.73074 9.88871C9.84559 10.0283 9.93171 10.1892 9.98416 10.3621C10.0366 10.5351 10.0544 10.7167 10.0364 10.8966C10.0184 11.0764 9.96502 11.2509 9.87936 11.4101C9.7937 11.5692 9.67742 11.7099 9.53722 11.824Z" fill="#6606EF"/>
<path d="M23.629 26.3059C23.8873 26.2242 24.1156 26.0678 24.2851 25.8564C24.4546 25.645 24.5577 25.3882 24.5814 25.1183C24.6051 24.8484 24.5483 24.5775 24.4182 24.3398C24.2881 24.1022 24.0905 23.9084 23.8503 23.7829C23.6102 23.6574 23.3383 23.6059 23.0689 23.6348C22.7995 23.6637 22.5447 23.7717 22.3367 23.9453C22.1286 24.1189 21.9766 24.3502 21.8999 24.61C21.8232 24.8699 21.8251 25.1466 21.9055 25.4053C21.9591 25.5779 22.0463 25.7382 22.1621 25.8769C22.2778 26.0157 22.4199 26.1302 22.58 26.2139C22.7402 26.2976 22.9153 26.3488 23.0953 26.3646C23.2753 26.3804 23.4567 26.3604 23.629 26.3059Z" fill="#6606EF"/>
<path d="M21.6029 7.72238C22.1583 7.72238 22.6086 7.2721 22.6086 6.71666C22.6086 6.16121 22.1583 5.71094 21.6029 5.71094C21.0474 5.71094 20.5972 6.16121 20.5972 6.71666C20.5972 7.2721 21.0474 7.72238 21.6029 7.72238Z" stroke="#6606EF" stroke-width="1.01708" stroke-miterlimit="10"/>
<path d="M15.0565 13.6762C9.45497 12.256 5.32084 17.5436 8.03629 22.4305C11.1906 28.1098 20.0257 27.1635 25.7126 15.4895" stroke="#FF9408" stroke-width="1.01708" stroke-miterlimit="10"/>
<path d="M15.3933 12.345C15.6552 12.4132 15.8911 12.5574 16.0712 12.7594C16.2514 12.9614 16.3677 13.2122 16.4056 13.4802C16.4435 13.7482 16.4013 14.0214 16.2842 14.2654C16.1672 14.5094 15.9805 14.7134 15.7478 14.8515C15.515 14.9897 15.2466 15.0559 14.9764 15.0418C14.7061 15.0277 14.446 14.934 14.2289 14.7724C14.0118 14.6108 13.8473 14.3886 13.7562 14.1337C13.6652 13.8788 13.6515 13.6027 13.7171 13.3401C13.761 13.1642 13.8393 12.9988 13.9476 12.8534C14.0558 12.708 14.1918 12.5855 14.3476 12.4929C14.5035 12.4004 14.6762 12.3397 14.8557 12.3143C15.0351 12.2889 15.2179 12.2994 15.3933 12.345Z" fill="#FF9408"/>
<path d="M26.9403 16.0922C27.0584 15.8483 27.1016 15.5749 27.0644 15.3064C27.0272 15.038 26.9114 14.7866 26.7315 14.584C26.5516 14.3814 26.3157 14.2365 26.0536 14.1678C25.7915 14.0992 25.5149 14.1096 25.2587 14.198C25.0025 14.2864 24.7783 14.4486 24.6143 14.6643C24.4502 14.88 24.3538 15.1395 24.3371 15.4099C24.3204 15.6804 24.3842 15.9497 24.5204 16.184C24.6566 16.4182 24.8592 16.6068 25.1025 16.7261C25.2648 16.8055 25.4411 16.8522 25.6214 16.8633C25.8016 16.8745 25.9824 16.8499 26.1531 16.791C26.3239 16.7321 26.4813 16.64 26.6164 16.5201C26.7515 16.4002 26.8615 16.2547 26.9403 16.0922Z" fill="#FF9408"/>
<path d="M21.918 11.7031C21.918 15.2414 20.6563 20.2228 25.8525 20.8186" stroke="#0EDDC9" stroke-width="1.01708" stroke-miterlimit="10"/>
<path d="M21.9179 13.0791C22.6771 13.0791 23.2924 12.4637 23.2924 11.7046C23.2924 10.9455 22.6771 10.3301 21.9179 10.3301C21.1588 10.3301 20.5435 10.9455 20.5435 11.7046C20.5435 12.4637 21.1588 13.0791 21.9179 13.0791Z" fill="#0EDDC9"/>
<path d="M25.6969 22.1836C25.9661 22.2137 26.2382 22.1633 26.4788 22.0389C26.7194 21.9145 26.9178 21.7217 27.049 21.4847C27.1801 21.2477 27.2381 20.9771 27.2157 20.7072C27.1933 20.4373 27.0915 20.18 26.923 19.9679C26.7546 19.7557 26.5271 19.5982 26.2693 19.5152C26.0114 19.4322 25.7348 19.4274 25.4742 19.5014C25.2137 19.5754 24.9809 19.7249 24.8052 19.9311C24.6295 20.1373 24.5188 20.3908 24.487 20.6598C24.4658 20.8394 24.4803 21.0214 24.5297 21.1954C24.5791 21.3694 24.6625 21.5318 24.7749 21.6735C24.8874 21.8151 25.0267 21.9331 25.185 22.0206C25.3432 22.1082 25.5172 22.1636 25.6969 22.1836Z" fill="#0EDDC9"/>
</svg>
