<svg width="72" height="72" viewBox="0 0 72 72" fill="none" xmlns="http://www.w3.org/2000/svg">
<rect width="72" height="72" rx="36" fill="#0EDDC9"/>
<path d="M19.8 27C23.7764 27 27 23.7765 27 19.8C27 15.8236 23.7764 12.6 19.8 12.6C15.8235 12.6 12.6 15.8236 12.6 19.8C12.6 23.7765 15.8235 27 19.8 27Z" fill="white" fill-opacity="0.1"/>
<mask id="mask0_162_344" style="mask-type:alpha" maskUnits="userSpaceOnUse" x="12" y="12" width="15" height="15">
<path d="M19.8 27C23.7764 27 27 23.7765 27 19.8C27 15.8236 23.7764 12.6 19.8 12.6C15.8235 12.6 12.6 15.8236 12.6 19.8C12.6 23.7765 15.8235 27 19.8 27Z" fill="#15BE53"/>
</mask>
<g mask="url(#mask0_162_344)">
<path d="M23.9736 25.6666C22.9482 24.5214 21.4584 23.8008 19.8003 23.8008C18.1421 23.8008 16.6523 24.5214 15.627 25.6666V28.2008H23.9736V25.6666Z" fill="white"/>
<path d="M19.7997 21.4008C21.1251 21.4008 22.1997 20.3263 22.1997 19.0008C22.1997 17.6753 21.1251 16.6008 19.7997 16.6008C18.4742 16.6008 17.3997 17.6753 17.3997 19.0008C17.3997 20.3263 18.4742 21.4008 19.7997 21.4008Z" fill="white"/>
</g>
<path d="M52.2 27C56.1764 27 59.4 23.7765 59.4 19.8C59.4 15.8236 56.1764 12.6 52.2 12.6C48.2235 12.6 45 15.8236 45 19.8C45 23.7765 48.2235 27 52.2 27Z" fill="white" fill-opacity="0.1"/>
<mask id="mask1_162_344" style="mask-type:alpha" maskUnits="userSpaceOnUse" x="45" y="12" width="15" height="15">
<path d="M52.2 27C56.1764 27 59.4 23.7765 59.4 19.8C59.4 15.8236 56.1764 12.6 52.2 12.6C48.2235 12.6 45 15.8236 45 19.8C45 23.7765 48.2235 27 52.2 27Z" fill="#15BE53"/>
</mask>
<g mask="url(#mask1_162_344)">
<path d="M56.3736 25.6666C55.3482 24.5214 53.8584 23.8008 52.2003 23.8008C50.5422 23.8008 49.0524 24.5214 48.027 25.6666V28.2008H56.3736V25.6666Z" fill="white"/>
<path d="M52.1997 21.4008C53.5252 21.4008 54.5997 20.3263 54.5997 19.0008C54.5997 17.6753 53.5252 16.6008 52.1997 16.6008C50.8742 16.6008 49.7997 17.6753 49.7997 19.0008C49.7997 20.3263 50.8742 21.4008 52.1997 21.4008Z" fill="white"/>
</g>
<path d="M19.8 59.4C23.7764 59.4 27 56.1764 27 52.2C27 48.2235 23.7764 45 19.8 45C15.8235 45 12.6 48.2235 12.6 52.2C12.6 56.1764 15.8235 59.4 19.8 59.4Z" fill="white" fill-opacity="0.1"/>
<mask id="mask2_162_344" style="mask-type:alpha" maskUnits="userSpaceOnUse" x="12" y="45" width="15" height="15">
<path d="M19.8 59.4C23.7764 59.4 27 56.1764 27 52.2C27 48.2235 23.7764 45 19.8 45C15.8235 45 12.6 48.2235 12.6 52.2C12.6 56.1764 15.8235 59.4 19.8 59.4Z" fill="#15BE53"/>
</mask>
<g mask="url(#mask2_162_344)">
<path d="M23.9736 58.0666C22.9482 56.9214 21.4584 56.2008 19.8003 56.2008C18.1421 56.2008 16.6523 56.9214 15.627 58.0666V60.6008H23.9736V58.0666Z" fill="white"/>
<path d="M19.7997 53.8008C21.1251 53.8008 22.1997 52.7263 22.1997 51.4008C22.1997 50.0753 21.1251 49.0008 19.7997 49.0008C18.4742 49.0008 17.3997 50.0753 17.3997 51.4008C17.3997 52.7263 18.4742 53.8008 19.7997 53.8008Z" fill="white"/>
</g>
<path d="M52.2 59.4C56.1764 59.4 59.4 56.1764 59.4 52.2C59.4 48.2235 56.1764 45 52.2 45C48.2235 45 45 48.2235 45 52.2C45 56.1764 48.2235 59.4 52.2 59.4Z" fill="white" fill-opacity="0.1"/>
<mask id="mask3_162_344" style="mask-type:alpha" maskUnits="userSpaceOnUse" x="45" y="45" width="15" height="15">
<path d="M52.2 59.4C56.1764 59.4 59.4 56.1764 59.4 52.2C59.4 48.2235 56.1764 45 52.2 45C48.2235 45 45 48.2235 45 52.2C45 56.1764 48.2235 59.4 52.2 59.4Z" fill="#15BE53"/>
</mask>
<g mask="url(#mask3_162_344)">
<path d="M56.3736 58.0666C55.3482 56.9214 53.8584 56.2008 52.2003 56.2008C50.5422 56.2008 49.0524 56.9214 48.027 58.0666V60.6008H56.3736V58.0666Z" fill="white"/>
<path d="M52.1997 53.8008C53.5252 53.8008 54.5997 52.7263 54.5997 51.4008C54.5997 50.0753 53.5252 49.0008 52.1997 49.0008C50.8742 49.0008 49.7997 50.0753 49.7997 51.4008C49.7997 52.7263 50.8742 53.8008 52.1997 53.8008Z" fill="white"/>
</g>
<path opacity="0.3" d="M19.5 44C19.5 44.2761 19.7239 44.5 20 44.5C20.2761 44.5 20.5 44.2761 20.5 44L19.5 44ZM20.5 32C20.5 31.7239 20.2761 31.5 20 31.5C19.7239 31.5 19.5 31.7239 19.5 32L20.5 32ZM20.5 44L20.5 32L19.5 32L19.5 44L20.5 44Z" fill="white"/>
<path opacity="0.3" d="M32 19.5C31.7239 19.5 31.5 19.7239 31.5 20C31.5 20.2761 31.7239 20.5 32 20.5L32 19.5ZM44 20.5C44.2761 20.5 44.5 20.2761 44.5 20C44.5 19.7239 44.2761 19.5 44 19.5L44 20.5ZM32 20.5L44 20.5L44 19.5L32 19.5L32 20.5Z" fill="white"/>
<path opacity="0.3" d="M55.5 44C55.5 44.2761 55.7239 44.5 56 44.5C56.2761 44.5 56.5 44.2761 56.5 44L55.5 44ZM56.5 32C56.5 31.7239 56.2761 31.5 56 31.5C55.7239 31.5 55.5 31.7239 55.5 32L56.5 32ZM56.5 44L56.5 32L55.5 32L55.5 44L56.5 44Z" fill="white"/>
<path opacity="0.3" d="M32 55.5C31.7239 55.5 31.5 55.7239 31.5 56C31.5 56.2761 31.7239 56.5 32 56.5L32 55.5ZM44 56.5C44.2761 56.5 44.5 56.2761 44.5 56C44.5 55.7239 44.2761 55.5 44 55.5L44 56.5ZM32 56.5L44 56.5L44 55.5L32 55.5L32 56.5Z" fill="white"/>
</svg>
