<svg width="102" height="12" viewBox="0 0 102 12" fill="none" xmlns="http://www.w3.org/2000/svg">
<path d="M5.18921 11.14C4.47054 11.14 3.80321 11.014 3.18721 10.762C2.58054 10.5007 2.04388 10.1413 1.57721 9.684C1.11988 9.22667 0.760544 8.69467 0.499211 8.088C0.247211 7.472 0.121211 6.80933 0.121211 6.1C0.121211 5.38133 0.247211 4.71867 0.499211 4.112C0.760544 3.496 1.11988 2.95933 1.57721 2.502C2.04388 2.04467 2.58054 1.69 3.18721 1.438C3.80321 1.186 4.47054 1.06 5.18921 1.06C5.66521 1.06 6.12254 1.116 6.56121 1.228C7.00921 1.33067 7.41521 1.494 7.77921 1.718C7.87254 1.76467 7.93788 1.83 7.97521 1.914C8.02188 1.998 8.04521 2.08667 8.04521 2.18C8.04521 2.33867 7.98921 2.474 7.87721 2.586C7.77454 2.698 7.65321 2.754 7.51321 2.754C7.45721 2.754 7.40121 2.74467 7.34521 2.726C7.29855 2.70733 7.24721 2.68867 7.19121 2.67C6.90188 2.52067 6.58921 2.404 6.25321 2.32C5.91721 2.22667 5.56254 2.18 5.18921 2.18C4.45188 2.18 3.78921 2.35267 3.20121 2.698C2.62254 3.04333 2.16521 3.51 1.82921 4.098C1.49321 4.686 1.32521 5.35333 1.32521 6.1C1.32521 6.83733 1.49321 7.50467 1.82921 8.102C2.16521 8.69 2.62254 9.15667 3.20121 9.502C3.78921 9.84733 4.45188 10.02 5.18921 10.02C5.56254 10.02 5.94521 9.96867 6.33721 9.866C6.73854 9.76333 7.07921 9.63267 7.35921 9.474L7.26121 9.81V6.856L7.48521 7.052H5.34321C5.18454 7.052 5.04921 7.00067 4.93721 6.898C4.83454 6.786 4.78321 6.65067 4.78321 6.492C4.78321 6.33333 4.83454 6.20267 4.93721 6.1C5.04921 5.988 5.18454 5.932 5.34321 5.932H7.89121C8.05921 5.932 8.19454 5.988 8.29721 6.1C8.39988 6.212 8.45121 6.34733 8.45121 6.506V9.74C8.45121 9.852 8.42321 9.95 8.36721 10.034C8.32054 10.118 8.25521 10.188 8.17121 10.244C7.75121 10.5147 7.28454 10.734 6.77121 10.902C6.26721 11.0607 5.73988 11.14 5.18921 11.14ZM10.8216 11C10.6629 11 10.5276 10.944 10.4156 10.832C10.3129 10.72 10.2616 10.5847 10.2616 10.426V4.322C10.2616 4.16333 10.3129 4.03267 10.4156 3.93C10.5276 3.818 10.6629 3.762 10.8216 3.762C10.9896 3.762 11.1249 3.818 11.2276 3.93C11.3303 4.03267 11.3816 4.16333 11.3816 4.322V6.17L11.2136 5.876C11.2696 5.58667 11.3676 5.30667 11.5076 5.036C11.6569 4.756 11.8436 4.50867 12.0676 4.294C12.2916 4.07 12.5483 3.89733 12.8376 3.776C13.1269 3.64533 13.4443 3.58 13.7896 3.58C13.9949 3.58 14.1816 3.63133 14.3496 3.734C14.5269 3.82733 14.6156 3.96267 14.6156 4.14C14.6156 4.336 14.5643 4.48067 14.4616 4.574C14.3589 4.66733 14.2423 4.714 14.1116 4.714C13.9903 4.714 13.8736 4.69067 13.7616 4.644C13.6496 4.588 13.5096 4.56 13.3416 4.56C13.1083 4.56 12.8749 4.62533 12.6416 4.756C12.4176 4.87733 12.2076 5.05467 12.0116 5.288C11.8249 5.52133 11.6709 5.78733 11.5496 6.086C11.4376 6.37533 11.3816 6.688 11.3816 7.024V10.426C11.3816 10.5847 11.3256 10.72 11.2136 10.832C11.1109 10.944 10.9803 11 10.8216 11ZM22.4403 7.36C22.4403 8.088 22.2769 8.73667 21.9503 9.306C21.6329 9.87533 21.1989 10.3233 20.6483 10.65C20.1069 10.9767 19.4956 11.14 18.8143 11.14C18.1329 11.14 17.5169 10.9767 16.9663 10.65C16.4156 10.3233 15.9769 9.87533 15.6503 9.306C15.3329 8.73667 15.1743 8.088 15.1743 7.36C15.1743 6.632 15.3329 5.98333 15.6503 5.414C15.9769 4.84467 16.4156 4.39667 16.9663 4.07C17.5169 3.74333 18.1329 3.58 18.8143 3.58C19.4956 3.58 20.1069 3.74333 20.6483 4.07C21.1989 4.39667 21.6329 4.84467 21.9503 5.414C22.2769 5.98333 22.4403 6.632 22.4403 7.36ZM21.3203 7.36C21.3203 6.81867 21.2083 6.34267 20.9843 5.932C20.7696 5.52133 20.4709 5.19933 20.0883 4.966C19.7149 4.73267 19.2903 4.616 18.8143 4.616C18.3383 4.616 17.9089 4.73267 17.5263 4.966C17.1529 5.19933 16.8543 5.52133 16.6303 5.932C16.4063 6.34267 16.2943 6.81867 16.2943 7.36C16.2943 7.892 16.4063 8.36333 16.6303 8.774C16.8543 9.18467 17.1529 9.51133 17.5263 9.754C17.9089 9.98733 18.3383 10.104 18.8143 10.104C19.2903 10.104 19.7149 9.98733 20.0883 9.754C20.4709 9.51133 20.7696 9.18467 20.9843 8.774C21.2083 8.36333 21.3203 7.892 21.3203 7.36ZM32.6649 3.636C32.8142 3.636 32.9402 3.68733 33.0429 3.79C33.1549 3.89267 33.2109 4.028 33.2109 4.196C33.2109 4.23333 33.2062 4.27533 33.1969 4.322C33.1969 4.35933 33.1875 4.39667 33.1689 4.434L31.0129 10.636C30.9662 10.7573 30.8869 10.8507 30.7749 10.916C30.6722 10.9813 30.5602 11.0093 30.4389 11C30.2242 10.9907 30.0609 10.8693 29.9489 10.636L28.1849 6.212L28.4649 6.254L26.8689 10.636C26.7662 10.8693 26.6029 10.9907 26.3789 11C26.2575 11.0093 26.1409 10.9813 26.0289 10.916C25.9169 10.8507 25.8422 10.7573 25.8049 10.636L23.6069 4.434C23.5789 4.35 23.5649 4.27067 23.5649 4.196C23.5649 4.04667 23.6162 3.916 23.7189 3.804C23.8215 3.692 23.9615 3.636 24.1389 3.636C24.2509 3.636 24.3535 3.664 24.4469 3.72C24.5402 3.776 24.6055 3.86467 24.6429 3.986L26.5329 9.502L26.2389 9.488L27.8769 5.288C27.9702 5.05467 28.1429 4.938 28.3949 4.938C28.5255 4.938 28.6282 4.97067 28.7029 5.036C28.7869 5.092 28.8475 5.176 28.8849 5.288L30.5929 9.488L30.2429 9.516L32.1329 3.986C32.2169 3.75267 32.3942 3.636 32.6649 3.636ZM35.1378 3.804H38.4278C38.5772 3.804 38.6985 3.85533 38.7918 3.958C38.8945 4.06067 38.9458 4.182 38.9458 4.322C38.9458 4.47133 38.8945 4.59733 38.7918 4.7C38.6985 4.79333 38.5772 4.84 38.4278 4.84H35.1378C34.9978 4.84 34.8765 4.78867 34.7738 4.686C34.6712 4.58333 34.6198 4.45733 34.6198 4.308C34.6198 4.168 34.6712 4.05133 34.7738 3.958C34.8765 3.85533 34.9978 3.804 35.1378 3.804ZM36.6078 1.9C36.7665 1.9 36.8972 1.956 36.9998 2.068C37.1025 2.17067 37.1538 2.30133 37.1538 2.46V9.222C37.1538 9.446 37.1865 9.614 37.2518 9.726C37.3172 9.838 37.4012 9.91733 37.5038 9.964C37.6158 10.0013 37.7232 10.02 37.8258 10.02C37.9192 10.02 37.9985 10.006 38.0638 9.978C38.1385 9.94067 38.2225 9.922 38.3158 9.922C38.4092 9.922 38.4932 9.96867 38.5678 10.062C38.6518 10.146 38.6938 10.258 38.6938 10.398C38.6938 10.566 38.5958 10.7107 38.3998 10.832C38.2038 10.944 37.9845 11 37.7418 11C37.6112 11 37.4478 10.9907 37.2518 10.972C37.0652 10.9533 36.8785 10.8927 36.6918 10.79C36.5052 10.6873 36.3465 10.5193 36.2158 10.286C36.0945 10.0433 36.0338 9.70733 36.0338 9.278V2.46C36.0338 2.30133 36.0898 2.17067 36.2018 2.068C36.3138 1.956 36.4492 1.9 36.6078 1.9ZM44.0038 3.65C44.6198 3.65 45.1051 3.78533 45.4598 4.056C45.8238 4.31733 46.0804 4.672 46.2298 5.12C46.3884 5.55867 46.4678 6.04867 46.4678 6.59V10.426C46.4678 10.5847 46.4118 10.72 46.2998 10.832C46.1971 10.944 46.0664 11 45.9078 11C45.7491 11 45.6138 10.944 45.5018 10.832C45.3991 10.72 45.3478 10.5847 45.3478 10.426V6.59C45.3478 6.23533 45.2964 5.918 45.1938 5.638C45.0911 5.34867 44.9184 5.12 44.6758 4.952C44.4424 4.77467 44.1204 4.686 43.7098 4.686C43.3271 4.686 42.9771 4.77467 42.6598 4.952C42.3424 5.12 42.0904 5.34867 41.9038 5.638C41.7171 5.918 41.6238 6.23533 41.6238 6.59V10.426C41.6238 10.5847 41.5678 10.72 41.4558 10.832C41.3531 10.944 41.2224 11 41.0638 11C40.9051 11 40.7698 10.944 40.6578 10.832C40.5551 10.72 40.5038 10.5847 40.5038 10.426V1.2C40.5038 1.04133 40.5551 0.910666 40.6578 0.807999C40.7698 0.696 40.9051 0.64 41.0638 0.64C41.2318 0.64 41.3671 0.696 41.4698 0.807999C41.5724 0.910666 41.6238 1.04133 41.6238 1.2V5.386L41.3438 5.694C41.3904 5.45133 41.4931 5.20867 41.6518 4.966C41.8104 4.714 42.0111 4.49 42.2538 4.294C42.4964 4.098 42.7671 3.944 43.0658 3.832C43.3644 3.71067 43.6771 3.65 44.0038 3.65ZM53.1683 1.186C53.2523 1.186 53.341 1.20933 53.4343 1.256C53.537 1.30267 53.6163 1.36333 53.6723 1.438L57.3823 7.052L56.8923 7.038L60.6443 1.438C60.7656 1.26067 60.9243 1.17667 61.1203 1.186C61.2696 1.19533 61.4003 1.25133 61.5123 1.354C61.6243 1.45667 61.6803 1.592 61.6803 1.76V10.426C61.6803 10.5847 61.6243 10.72 61.5123 10.832C61.4003 10.944 61.2603 11 61.0923 11C60.9243 11 60.7843 10.944 60.6723 10.832C60.5603 10.72 60.5043 10.5847 60.5043 10.426V2.824L60.8543 2.894L57.5503 7.92C57.4943 7.98533 57.4243 8.04133 57.3403 8.088C57.2656 8.13467 57.1863 8.158 57.1023 8.158C57.0183 8.158 56.9343 8.13467 56.8503 8.088C56.7663 8.04133 56.6963 7.98533 56.6403 7.92L53.3783 2.894L53.6723 2.53V10.426C53.6723 10.5847 53.621 10.72 53.5183 10.832C53.4156 10.944 53.285 11 53.1263 11C52.9676 11 52.837 10.944 52.7343 10.832C52.641 10.72 52.5943 10.5847 52.5943 10.426V1.76C52.5943 1.61067 52.6456 1.48 52.7483 1.368C52.8603 1.24667 53.0003 1.186 53.1683 1.186ZM65.0154 10.426C65.0154 10.5847 64.9594 10.72 64.8474 10.832C64.7447 10.944 64.614 11 64.4554 11C64.2874 11 64.152 10.944 64.0494 10.832C63.9467 10.72 63.8954 10.5847 63.8954 10.426V4.21C63.8954 4.05133 63.9467 3.92067 64.0494 3.818C64.1614 3.706 64.2967 3.65 64.4554 3.65C64.614 3.65 64.7447 3.706 64.8474 3.818C64.9594 3.92067 65.0154 4.05133 65.0154 4.21V10.426ZM64.4554 2.712C64.222 2.712 64.0494 2.66533 63.9374 2.572C63.8254 2.47867 63.7694 2.334 63.7694 2.138V1.942C63.7694 1.746 63.83 1.60133 63.9514 1.508C64.0727 1.41467 64.2454 1.368 64.4694 1.368C64.6934 1.368 64.8614 1.41467 64.9734 1.508C65.0854 1.60133 65.1414 1.746 65.1414 1.942V2.138C65.1414 2.334 65.0807 2.47867 64.9594 2.572C64.8474 2.66533 64.6794 2.712 64.4554 2.712ZM70.6252 3.58C71.2599 3.58 71.7592 3.71067 72.1232 3.972C72.4872 4.23333 72.7439 4.58333 72.8932 5.022C73.0519 5.46067 73.1312 5.95067 73.1312 6.492V10.426C73.1312 10.5847 73.0752 10.72 72.9632 10.832C72.8605 10.944 72.7299 11 72.5712 11C72.4125 11 72.2772 10.944 72.1652 10.832C72.0625 10.72 72.0112 10.5847 72.0112 10.426V6.52C72.0112 6.16533 71.9552 5.848 71.8432 5.568C71.7405 5.27867 71.5632 5.05 71.3112 4.882C71.0685 4.70467 70.7325 4.616 70.3032 4.616C69.9112 4.616 69.5519 4.70467 69.2252 4.882C68.8985 5.05 68.6372 5.27867 68.4412 5.568C68.2452 5.848 68.1472 6.16533 68.1472 6.52V10.426C68.1472 10.5847 68.0912 10.72 67.9792 10.832C67.8765 10.944 67.7459 11 67.5872 11C67.4285 11 67.2932 10.944 67.1812 10.832C67.0785 10.72 67.0272 10.5847 67.0272 10.426V4.322C67.0272 4.16333 67.0785 4.03267 67.1812 3.93C67.2932 3.818 67.4285 3.762 67.5872 3.762C67.7552 3.762 67.8905 3.818 67.9932 3.93C68.0959 4.03267 68.1472 4.16333 68.1472 4.322V5.316L67.8672 5.624C67.9139 5.38133 68.0212 5.13867 68.1892 4.896C68.3572 4.644 68.5672 4.42 68.8192 4.224C69.0712 4.028 69.3512 3.874 69.6592 3.762C69.9672 3.64067 70.2892 3.58 70.6252 3.58ZM81.167 0.64C81.3257 0.64 81.4563 0.696 81.559 0.807999C81.671 0.910666 81.727 1.04133 81.727 1.2V10.426C81.727 10.5847 81.671 10.72 81.559 10.832C81.4563 10.944 81.3257 11 81.167 11C80.999 11 80.8637 10.944 80.761 10.832C80.6583 10.72 80.607 10.5847 80.607 10.426V9.096L80.873 8.998C80.873 9.222 80.803 9.46 80.663 9.712C80.523 9.95467 80.3317 10.1833 80.089 10.398C79.8463 10.6127 79.557 10.79 79.221 10.93C78.8943 11.07 78.5397 11.14 78.157 11.14C77.5317 11.14 76.9623 10.9767 76.449 10.65C75.945 10.3233 75.5437 9.87533 75.245 9.306C74.9557 8.73667 74.811 8.088 74.811 7.36C74.811 6.62267 74.9557 5.96933 75.245 5.4C75.5437 4.83067 75.945 4.38733 76.449 4.07C76.953 3.74333 77.513 3.58 78.129 3.58C78.521 3.58 78.8897 3.64533 79.235 3.776C79.5803 3.90667 79.879 4.084 80.131 4.308C80.3923 4.532 80.5977 4.77933 80.747 5.05C80.8963 5.32067 80.971 5.59133 80.971 5.862L80.607 5.778V1.2C80.607 1.04133 80.6583 0.910666 80.761 0.807999C80.8637 0.696 80.999 0.64 81.167 0.64ZM78.283 10.104C78.7497 10.104 79.1603 9.98733 79.515 9.754C79.879 9.51133 80.159 9.18467 80.355 8.774C80.5603 8.354 80.663 7.88267 80.663 7.36C80.663 6.828 80.5603 6.35667 80.355 5.946C80.159 5.53533 79.879 5.21333 79.515 4.98C79.1603 4.73733 78.7497 4.616 78.283 4.616C77.8257 4.616 77.415 4.73733 77.051 4.98C76.6963 5.21333 76.4163 5.53533 76.211 5.946C76.0057 6.35667 75.903 6.828 75.903 7.36C75.903 7.87333 76.0057 8.34 76.211 8.76C76.4163 9.17067 76.6963 9.49733 77.051 9.74C77.415 9.98267 77.8257 10.104 78.283 10.104ZM83.3966 9.852C83.3126 9.73067 83.2753 9.60467 83.2846 9.474C83.2939 9.334 83.3733 9.21267 83.5226 9.11C83.6159 9.04467 83.7233 9.01667 83.8446 9.026C83.9753 9.03533 84.0919 9.096 84.1946 9.208C84.4559 9.516 84.7546 9.76333 85.0906 9.95C85.4266 10.1273 85.8373 10.216 86.3226 10.216C86.5466 10.2067 86.7706 10.1693 86.9946 10.104C87.2186 10.0387 87.4053 9.92667 87.5546 9.768C87.7133 9.6 87.7926 9.38067 87.7926 9.11C87.7926 8.84867 87.7133 8.64333 87.5546 8.494C87.3959 8.33533 87.1906 8.20933 86.9386 8.116C86.6866 8.01333 86.4113 7.92467 86.1126 7.85C85.8046 7.766 85.5013 7.67267 85.2026 7.57C84.9039 7.458 84.6333 7.32267 84.3906 7.164C84.1573 6.996 83.9659 6.79067 83.8166 6.548C83.6766 6.296 83.6066 5.99267 83.6066 5.638C83.6066 5.218 83.7186 4.854 83.9426 4.546C84.1759 4.238 84.4839 4 84.8666 3.832C85.2586 3.664 85.6833 3.58 86.1406 3.58C86.4019 3.58 86.6726 3.61267 86.9526 3.678C87.2419 3.734 87.5219 3.83667 87.7926 3.986C88.0633 4.126 88.3013 4.322 88.5066 4.574C88.5906 4.66733 88.6373 4.784 88.6466 4.924C88.6559 5.064 88.5953 5.19 88.4646 5.302C88.3619 5.37667 88.2453 5.40933 88.1146 5.4C87.9933 5.39067 87.8906 5.344 87.8066 5.26C87.6106 5.02667 87.3633 4.84933 87.0646 4.728C86.7753 4.59733 86.4533 4.532 86.0986 4.532C85.8746 4.532 85.6553 4.56467 85.4406 4.63C85.2259 4.69533 85.0439 4.80733 84.8946 4.966C84.7546 5.11533 84.6846 5.32533 84.6846 5.596C84.6939 5.848 84.7779 6.05333 84.9366 6.212C85.0953 6.37067 85.3099 6.50133 85.5806 6.604C85.8513 6.69733 86.1499 6.79067 86.4766 6.884C86.7753 6.95867 87.0599 7.04733 87.3306 7.15C87.6106 7.24333 87.8626 7.36933 88.0866 7.528C88.3106 7.68667 88.4879 7.892 88.6186 8.144C88.7493 8.38667 88.8146 8.69467 88.8146 9.068C88.8146 9.49733 88.6933 9.87067 88.4506 10.188C88.2079 10.496 87.8859 10.734 87.4846 10.902C87.0926 11.0607 86.6679 11.14 86.2106 11.14C85.6973 11.14 85.1886 11.042 84.6846 10.846C84.1899 10.65 83.7606 10.3187 83.3966 9.852ZM93.7795 11.14C93.0328 11.14 92.3795 10.9813 91.8195 10.664C91.2595 10.3467 90.8208 9.91267 90.5035 9.362C90.1955 8.802 90.0415 8.158 90.0415 7.43C90.0415 6.618 90.2001 5.92733 90.5175 5.358C90.8441 4.77933 91.2641 4.34067 91.7775 4.042C92.3001 3.734 92.8508 3.58 93.4295 3.58C93.8588 3.58 94.2741 3.65933 94.6755 3.818C95.0768 3.97667 95.4315 4.21 95.7395 4.518C96.0475 4.81667 96.2948 5.18067 96.4815 5.61C96.6681 6.03 96.7661 6.50133 96.7755 7.024C96.7755 7.17333 96.7195 7.29933 96.6075 7.402C96.4955 7.50467 96.3648 7.556 96.2155 7.556H90.6855L90.4335 6.59H95.8235L95.5995 6.786V6.478C95.5621 6.09533 95.4315 5.76867 95.2075 5.498C94.9928 5.218 94.7268 5.00333 94.4095 4.854C94.1015 4.70467 93.7748 4.63 93.4295 4.63C93.1495 4.63 92.8695 4.68133 92.5895 4.784C92.3188 4.87733 92.0715 5.036 91.8475 5.26C91.6328 5.47467 91.4555 5.75467 91.3155 6.1C91.1848 6.44533 91.1195 6.86067 91.1195 7.346C91.1195 7.88733 91.2268 8.36333 91.4415 8.774C91.6655 9.18467 91.9735 9.51133 92.3655 9.754C92.7575 9.98733 93.2148 10.104 93.7375 10.104C94.0641 10.104 94.3488 10.062 94.5915 9.978C94.8341 9.894 95.0441 9.79133 95.2215 9.67C95.3988 9.53933 95.5481 9.40867 95.6695 9.278C95.7908 9.194 95.9075 9.152 96.0195 9.152C96.1595 9.152 96.2715 9.19867 96.3555 9.292C96.4488 9.38533 96.4955 9.49733 96.4955 9.628C96.4955 9.78667 96.4208 9.92667 96.2715 10.048C96.0101 10.3373 95.6555 10.594 95.2075 10.818C94.7595 11.0327 94.2835 11.14 93.7795 11.14ZM98.1789 3.804H101.469C101.618 3.804 101.74 3.85533 101.833 3.958C101.936 4.06067 101.987 4.182 101.987 4.322C101.987 4.47133 101.936 4.59733 101.833 4.7C101.74 4.79333 101.618 4.84 101.469 4.84H98.1789C98.0389 4.84 97.9175 4.78867 97.8149 4.686C97.7122 4.58333 97.6609 4.45733 97.6609 4.308C97.6609 4.168 97.7122 4.05133 97.8149 3.958C97.9175 3.85533 98.0389 3.804 98.1789 3.804ZM99.6489 1.9C99.8075 1.9 99.9382 1.956 100.041 2.068C100.144 2.17067 100.195 2.30133 100.195 2.46V9.222C100.195 9.446 100.228 9.614 100.293 9.726C100.358 9.838 100.442 9.91733 100.545 9.964C100.657 10.0013 100.764 10.02 100.867 10.02C100.96 10.02 101.04 10.006 101.105 9.978C101.18 9.94067 101.264 9.922 101.357 9.922C101.45 9.922 101.534 9.96867 101.609 10.062C101.693 10.146 101.735 10.258 101.735 10.398C101.735 10.566 101.637 10.7107 101.441 10.832C101.245 10.944 101.026 11 100.783 11C100.652 11 100.489 10.9907 100.293 10.972C100.106 10.9533 99.9195 10.8927 99.7329 10.79C99.5462 10.6873 99.3875 10.5193 99.2569 10.286C99.1355 10.0433 99.0749 9.70733 99.0749 9.278V2.46C99.0749 2.30133 99.1309 2.17067 99.2429 2.068C99.3549 1.956 99.4902 1.9 99.6489 1.9Z" fill="#17171A"/>
</svg>
