<svg width="101" height="14" viewBox="0 0 101 14" fill="none" xmlns="http://www.w3.org/2000/svg">
<path d="M1.09702 1.186C1.18102 1.186 1.26968 1.20933 1.36302 1.256C1.46568 1.30267 1.54502 1.36333 1.60102 1.438L5.31102 7.052L4.82102 7.038L8.57302 1.438C8.69435 1.26067 8.85302 1.17667 9.04902 1.186C9.19835 1.19533 9.32902 1.25133 9.44102 1.354C9.55302 1.45667 9.60902 1.592 9.60902 1.76V10.426C9.60902 10.5847 9.55302 10.72 9.44102 10.832C9.32902 10.944 9.18902 11 9.02102 11C8.85302 11 8.71302 10.944 8.60102 10.832C8.48902 10.72 8.43302 10.5847 8.43302 10.426V2.824L8.78302 2.894L5.47902 7.92C5.42302 7.98533 5.35302 8.04133 5.26902 8.088C5.19435 8.13467 5.11502 8.158 5.03102 8.158C4.94702 8.158 4.86302 8.13467 4.77902 8.088C4.69502 8.04133 4.62502 7.98533 4.56902 7.92L1.30702 2.894L1.60102 2.53V10.426C1.60102 10.5847 1.54968 10.72 1.44702 10.832C1.34435 10.944 1.21368 11 1.05502 11C0.896349 11 0.765682 10.944 0.663016 10.832C0.569682 10.72 0.523016 10.5847 0.523016 10.426V1.76C0.523016 1.61067 0.574349 1.48 0.677016 1.368C0.789016 1.24667 0.929016 1.186 1.09702 1.186ZM17.8301 3.692C17.9887 3.692 18.1194 3.748 18.2221 3.86C18.3341 3.96267 18.3901 4.09333 18.3901 4.252V10.426C18.3901 10.5847 18.3341 10.72 18.2221 10.832C18.1194 10.944 17.9887 11 17.8301 11C17.6621 11 17.5267 10.944 17.4241 10.832C17.3214 10.72 17.2701 10.5847 17.2701 10.426V9.096L17.5361 9.068C17.5361 9.27333 17.4661 9.49733 17.3261 9.74C17.1861 9.98267 16.9947 10.2113 16.7521 10.426C16.5094 10.6313 16.2201 10.804 15.8841 10.944C15.5574 11.0747 15.2027 11.14 14.8201 11.14C14.1854 11.14 13.6161 10.9767 13.1121 10.65C12.6081 10.314 12.2067 9.86133 11.9081 9.292C11.6187 8.72267 11.4741 8.074 11.4741 7.346C11.4741 6.60867 11.6187 5.96 11.9081 5.4C12.2067 4.83067 12.6081 4.38733 13.1121 4.07C13.6161 3.74333 14.1761 3.58 14.7921 3.58C15.1934 3.58 15.5667 3.64533 15.9121 3.776C16.2574 3.90667 16.5561 4.084 16.8081 4.308C17.0694 4.532 17.2701 4.77933 17.4101 5.05C17.5594 5.32067 17.6341 5.59133 17.6341 5.862L17.2701 5.778V4.252C17.2701 4.09333 17.3214 3.96267 17.4241 3.86C17.5267 3.748 17.6621 3.692 17.8301 3.692ZM14.9461 10.104C15.4127 10.104 15.8234 9.98267 16.1781 9.74C16.5421 9.49733 16.8221 9.17067 17.0181 8.76C17.2234 8.34 17.3261 7.86867 17.3261 7.346C17.3261 6.83267 17.2234 6.37067 17.0181 5.96C16.8221 5.54 16.5421 5.21333 16.1781 4.98C15.8234 4.73733 15.4127 4.616 14.9461 4.616C14.4887 4.616 14.0781 4.73267 13.7141 4.966C13.3594 5.19933 13.0794 5.52133 12.8741 5.932C12.6687 6.34267 12.5661 6.814 12.5661 7.346C12.5661 7.86867 12.6641 8.34 12.8601 8.76C13.0654 9.17067 13.3454 9.49733 13.7001 9.74C14.0641 9.98267 14.4794 10.104 14.9461 10.104ZM24.0637 3.58C24.6984 3.58 25.1977 3.71067 25.5617 3.972C25.9257 4.23333 26.1824 4.58333 26.3317 5.022C26.4904 5.46067 26.5697 5.95067 26.5697 6.492V10.426C26.5697 10.5847 26.5137 10.72 26.4017 10.832C26.299 10.944 26.1684 11 26.0097 11C25.851 11 25.7157 10.944 25.6037 10.832C25.501 10.72 25.4497 10.5847 25.4497 10.426V6.52C25.4497 6.16533 25.3937 5.848 25.2817 5.568C25.179 5.27867 25.0017 5.05 24.7497 4.882C24.507 4.70467 24.171 4.616 23.7417 4.616C23.3497 4.616 22.9904 4.70467 22.6637 4.882C22.337 5.05 22.0757 5.27867 21.8797 5.568C21.6837 5.848 21.5857 6.16533 21.5857 6.52V10.426C21.5857 10.5847 21.5297 10.72 21.4177 10.832C21.315 10.944 21.1844 11 21.0257 11C20.867 11 20.7317 10.944 20.6197 10.832C20.517 10.72 20.4657 10.5847 20.4657 10.426V4.322C20.4657 4.16333 20.517 4.03267 20.6197 3.93C20.7317 3.818 20.867 3.762 21.0257 3.762C21.1937 3.762 21.329 3.818 21.4317 3.93C21.5344 4.03267 21.5857 4.16333 21.5857 4.322V5.316L21.3057 5.624C21.3524 5.38133 21.4597 5.13867 21.6277 4.896C21.7957 4.644 22.0057 4.42 22.2577 4.224C22.5097 4.028 22.7897 3.874 23.0977 3.762C23.4057 3.64067 23.7277 3.58 24.0637 3.58ZM34.6055 3.692C34.7641 3.692 34.8948 3.748 34.9975 3.86C35.1095 3.96267 35.1655 4.09333 35.1655 4.252V10.426C35.1655 10.5847 35.1095 10.72 34.9975 10.832C34.8948 10.944 34.7641 11 34.6055 11C34.4375 11 34.3021 10.944 34.1995 10.832C34.0968 10.72 34.0455 10.5847 34.0455 10.426V9.096L34.3115 9.068C34.3115 9.27333 34.2415 9.49733 34.1015 9.74C33.9615 9.98267 33.7701 10.2113 33.5275 10.426C33.2848 10.6313 32.9955 10.804 32.6595 10.944C32.3328 11.0747 31.9781 11.14 31.5955 11.14C30.9608 11.14 30.3915 10.9767 29.8875 10.65C29.3835 10.314 28.9821 9.86133 28.6835 9.292C28.3941 8.72267 28.2495 8.074 28.2495 7.346C28.2495 6.60867 28.3941 5.96 28.6835 5.4C28.9821 4.83067 29.3835 4.38733 29.8875 4.07C30.3915 3.74333 30.9515 3.58 31.5675 3.58C31.9688 3.58 32.3421 3.64533 32.6875 3.776C33.0328 3.90667 33.3315 4.084 33.5835 4.308C33.8448 4.532 34.0455 4.77933 34.1855 5.05C34.3348 5.32067 34.4095 5.59133 34.4095 5.862L34.0455 5.778V4.252C34.0455 4.09333 34.0968 3.96267 34.1995 3.86C34.3021 3.748 34.4375 3.692 34.6055 3.692ZM31.7215 10.104C32.1881 10.104 32.5988 9.98267 32.9535 9.74C33.3175 9.49733 33.5975 9.17067 33.7935 8.76C33.9988 8.34 34.1015 7.86867 34.1015 7.346C34.1015 6.83267 33.9988 6.37067 33.7935 5.96C33.5975 5.54 33.3175 5.21333 32.9535 4.98C32.5988 4.73733 32.1881 4.616 31.7215 4.616C31.2641 4.616 30.8535 4.73267 30.4895 4.966C30.1348 5.19933 29.8548 5.52133 29.6495 5.932C29.4441 6.34267 29.3415 6.814 29.3415 7.346C29.3415 7.86867 29.4395 8.34 29.6355 8.76C29.8408 9.17067 30.1208 9.49733 30.4755 9.74C30.8395 9.98267 31.2548 10.104 31.7215 10.104ZM40.2791 3.58C40.6804 3.58 41.0537 3.65 41.3991 3.79C41.7444 3.92067 42.0431 4.09333 42.2951 4.308C42.5564 4.52267 42.7571 4.74667 42.8971 4.98C43.0464 5.21333 43.1211 5.43267 43.1211 5.638L42.8551 5.47V4.252C42.8551 4.09333 42.9064 3.96267 43.0091 3.86C43.1117 3.748 43.2471 3.692 43.4151 3.692C43.5737 3.692 43.7044 3.748 43.8071 3.86C43.9191 3.96267 43.9751 4.09333 43.9751 4.252V10.384C43.9751 11.1493 43.8117 11.784 43.4851 12.288C43.1677 12.792 42.7384 13.17 42.1971 13.422C41.6557 13.674 41.0491 13.8 40.3771 13.8C40.0971 13.8 39.7891 13.7627 39.4531 13.688C39.1171 13.6133 38.8184 13.52 38.5571 13.408C38.2957 13.3053 38.1277 13.198 38.0531 13.086C37.9131 12.9927 37.8244 12.8853 37.7871 12.764C37.7591 12.652 37.7824 12.5447 37.8571 12.442C37.9411 12.3113 38.0484 12.246 38.1791 12.246C38.3191 12.246 38.4917 12.288 38.6971 12.372C38.7811 12.4 38.9117 12.4467 39.0891 12.512C39.2757 12.5773 39.4811 12.6333 39.7051 12.68C39.9384 12.736 40.1671 12.764 40.3911 12.764C41.1844 12.764 41.7911 12.554 42.2111 12.134C42.6404 11.7233 42.8551 11.1773 42.8551 10.496V9.194L43.0091 9.264C42.9531 9.52533 42.8364 9.768 42.6591 9.992C42.4911 10.216 42.2811 10.4167 42.0291 10.594C41.7864 10.762 41.5157 10.8973 41.2171 11C40.9184 11.0933 40.6151 11.14 40.3071 11.14C39.6537 11.14 39.0657 10.9767 38.5431 10.65C38.0204 10.3233 37.6051 9.87533 37.2971 9.306C36.9984 8.73667 36.8491 8.088 36.8491 7.36C36.8491 6.62267 36.9984 5.96933 37.2971 5.4C37.6051 4.83067 38.0157 4.38733 38.5291 4.07C39.0517 3.74333 39.6351 3.58 40.2791 3.58ZM40.4191 4.616C39.9431 4.616 39.5137 4.73733 39.1311 4.98C38.7577 5.21333 38.4637 5.53533 38.2491 5.946C38.0437 6.35667 37.9411 6.828 37.9411 7.36C37.9411 7.87333 38.0437 8.34 38.2491 8.76C38.4637 9.17067 38.7577 9.49733 39.1311 9.74C39.5137 9.98267 39.9431 10.104 40.4191 10.104C40.9044 10.104 41.3337 9.98733 41.7071 9.754C42.0804 9.51133 42.3744 9.18467 42.5891 8.774C42.8037 8.36333 42.9111 7.892 42.9111 7.36C42.9111 6.81867 42.8037 6.34267 42.5891 5.932C42.3744 5.52133 42.0804 5.19933 41.7071 4.966C41.3337 4.73267 40.9044 4.616 40.4191 4.616ZM49.1183 11.14C48.3717 11.14 47.7183 10.9813 47.1583 10.664C46.5983 10.3467 46.1597 9.91267 45.8423 9.362C45.5343 8.802 45.3803 8.158 45.3803 7.43C45.3803 6.618 45.539 5.92733 45.8563 5.358C46.183 4.77933 46.603 4.34067 47.1163 4.042C47.639 3.734 48.1897 3.58 48.7683 3.58C49.1977 3.58 49.613 3.65933 50.0143 3.818C50.4157 3.97667 50.7703 4.21 51.0783 4.518C51.3863 4.81667 51.6337 5.18067 51.8203 5.61C52.007 6.03 52.105 6.50133 52.1143 7.024C52.1143 7.17333 52.0583 7.29933 51.9463 7.402C51.8343 7.50467 51.7037 7.556 51.5543 7.556H46.0243L45.7723 6.59H51.1623L50.9383 6.786V6.478C50.901 6.09533 50.7703 5.76867 50.5463 5.498C50.3317 5.218 50.0657 5.00333 49.7483 4.854C49.4403 4.70467 49.1137 4.63 48.7683 4.63C48.4883 4.63 48.2083 4.68133 47.9283 4.784C47.6577 4.87733 47.4103 5.036 47.1863 5.26C46.9717 5.47467 46.7943 5.75467 46.6543 6.1C46.5237 6.44533 46.4583 6.86067 46.4583 7.346C46.4583 7.88733 46.5657 8.36333 46.7803 8.774C47.0043 9.18467 47.3123 9.51133 47.7043 9.754C48.0963 9.98733 48.5537 10.104 49.0763 10.104C49.403 10.104 49.6877 10.062 49.9303 9.978C50.173 9.894 50.383 9.79133 50.5603 9.67C50.7377 9.53933 50.887 9.40867 51.0083 9.278C51.1297 9.194 51.2463 9.152 51.3583 9.152C51.4983 9.152 51.6103 9.19867 51.6943 9.292C51.7877 9.38533 51.8343 9.49733 51.8343 9.628C51.8343 9.78667 51.7597 9.92667 51.6103 10.048C51.349 10.3373 50.9943 10.594 50.5463 10.818C50.0983 11.0327 49.6223 11.14 49.1183 11.14ZM66.6832 6.1C66.6832 6.81867 66.5665 7.486 66.3332 8.102C66.0999 8.70867 65.7732 9.24067 65.3532 9.698C64.9332 10.1553 64.4339 10.51 63.8552 10.762C63.2765 11.014 62.6465 11.14 61.9652 11.14C61.2745 11.14 60.6399 11.014 60.0612 10.762C59.4919 10.51 58.9972 10.1553 58.5772 9.698C58.1572 9.24067 57.8305 8.70867 57.5972 8.102C57.3639 7.486 57.2472 6.81867 57.2472 6.1C57.2472 5.372 57.3639 4.70467 57.5972 4.098C57.8305 3.482 58.1572 2.95 58.5772 2.502C58.9972 2.04467 59.4919 1.69 60.0612 1.438C60.6399 1.186 61.2745 1.06 61.9652 1.06C62.6465 1.06 63.2765 1.186 63.8552 1.438C64.4339 1.69 64.9332 2.04467 65.3532 2.502C65.7732 2.95 66.0999 3.482 66.3332 4.098C66.5665 4.70467 66.6832 5.372 66.6832 6.1ZM65.4792 6.1C65.4792 5.33467 65.3252 4.658 65.0172 4.07C64.7185 3.482 64.3079 3.02 63.7852 2.684C63.2625 2.348 62.6559 2.18 61.9652 2.18C61.2745 2.18 60.6632 2.348 60.1312 2.684C59.6085 3.02 59.1979 3.482 58.8992 4.07C58.6005 4.658 58.4512 5.33467 58.4512 6.1C58.4512 6.856 58.6005 7.53267 58.8992 8.13C59.1979 8.718 59.6085 9.18 60.1312 9.516C60.6632 9.852 61.2745 10.02 61.9652 10.02C62.6559 10.02 63.2625 9.852 63.7852 9.516C64.3079 9.18 64.7185 8.718 65.0172 8.13C65.3252 7.53267 65.4792 6.856 65.4792 6.1ZM68.0646 3.804H71.3546C71.5039 3.804 71.6253 3.85533 71.7186 3.958C71.8213 4.06067 71.8726 4.182 71.8726 4.322C71.8726 4.47133 71.8213 4.59733 71.7186 4.7C71.6253 4.79333 71.5039 4.84 71.3546 4.84H68.0646C67.9246 4.84 67.8033 4.78867 67.7006 4.686C67.5979 4.58333 67.5466 4.45733 67.5466 4.308C67.5466 4.168 67.5979 4.05133 67.7006 3.958C67.8033 3.85533 67.9246 3.804 68.0646 3.804ZM69.5346 1.9C69.6933 1.9 69.8239 1.956 69.9266 2.068C70.0293 2.17067 70.0806 2.30133 70.0806 2.46V9.222C70.0806 9.446 70.1133 9.614 70.1786 9.726C70.2439 9.838 70.3279 9.91733 70.4306 9.964C70.5426 10.0013 70.6499 10.02 70.7526 10.02C70.8459 10.02 70.9253 10.006 70.9906 9.978C71.0653 9.94067 71.1493 9.922 71.2426 9.922C71.3359 9.922 71.4199 9.96867 71.4946 10.062C71.5786 10.146 71.6206 10.258 71.6206 10.398C71.6206 10.566 71.5226 10.7107 71.3266 10.832C71.1306 10.944 70.9113 11 70.6686 11C70.5379 11 70.3746 10.9907 70.1786 10.972C69.9919 10.9533 69.8053 10.8927 69.6186 10.79C69.4319 10.6873 69.2733 10.5193 69.1426 10.286C69.0213 10.0433 68.9606 9.70733 68.9606 9.278V2.46C68.9606 2.30133 69.0166 2.17067 69.1286 2.068C69.2406 1.956 69.3759 1.9 69.5346 1.9ZM76.9305 3.65C77.5465 3.65 78.0319 3.78533 78.3865 4.056C78.7505 4.31733 79.0072 4.672 79.1565 5.12C79.3152 5.55867 79.3945 6.04867 79.3945 6.59V10.426C79.3945 10.5847 79.3385 10.72 79.2265 10.832C79.1239 10.944 78.9932 11 78.8345 11C78.6759 11 78.5405 10.944 78.4285 10.832C78.3259 10.72 78.2745 10.5847 78.2745 10.426V6.59C78.2745 6.23533 78.2232 5.918 78.1205 5.638C78.0179 5.34867 77.8452 5.12 77.6025 4.952C77.3692 4.77467 77.0472 4.686 76.6365 4.686C76.2539 4.686 75.9039 4.77467 75.5865 4.952C75.2692 5.12 75.0172 5.34867 74.8305 5.638C74.6439 5.918 74.5505 6.23533 74.5505 6.59V10.426C74.5505 10.5847 74.4945 10.72 74.3825 10.832C74.2799 10.944 74.1492 11 73.9905 11C73.8319 11 73.6965 10.944 73.5845 10.832C73.4819 10.72 73.4305 10.5847 73.4305 10.426V1.2C73.4305 1.04133 73.4819 0.910666 73.5845 0.807999C73.6965 0.696 73.8319 0.64 73.9905 0.64C74.1585 0.64 74.2939 0.696 74.3965 0.807999C74.4992 0.910666 74.5505 1.04133 74.5505 1.2V5.386L74.2705 5.694C74.3172 5.45133 74.4199 5.20867 74.5785 4.966C74.7372 4.714 74.9379 4.49 75.1805 4.294C75.4232 4.098 75.6939 3.944 75.9925 3.832C76.2912 3.71067 76.6039 3.65 76.9305 3.65ZM84.8156 11.14C84.0689 11.14 83.4156 10.9813 82.8556 10.664C82.2956 10.3467 81.8569 9.91267 81.5396 9.362C81.2316 8.802 81.0776 8.158 81.0776 7.43C81.0776 6.618 81.2363 5.92733 81.5536 5.358C81.8803 4.77933 82.3003 4.34067 82.8136 4.042C83.3363 3.734 83.8869 3.58 84.4656 3.58C84.8949 3.58 85.3103 3.65933 85.7116 3.818C86.1129 3.97667 86.4676 4.21 86.7756 4.518C87.0836 4.81667 87.3309 5.18067 87.5176 5.61C87.7043 6.03 87.8023 6.50133 87.8116 7.024C87.8116 7.17333 87.7556 7.29933 87.6436 7.402C87.5316 7.50467 87.4009 7.556 87.2516 7.556H81.7216L81.4696 6.59H86.8596L86.6356 6.786V6.478C86.5983 6.09533 86.4676 5.76867 86.2436 5.498C86.0289 5.218 85.7629 5.00333 85.4456 4.854C85.1376 4.70467 84.8109 4.63 84.4656 4.63C84.1856 4.63 83.9056 4.68133 83.6256 4.784C83.3549 4.87733 83.1076 5.036 82.8836 5.26C82.6689 5.47467 82.4916 5.75467 82.3516 6.1C82.2209 6.44533 82.1556 6.86067 82.1556 7.346C82.1556 7.88733 82.2629 8.36333 82.4776 8.774C82.7016 9.18467 83.0096 9.51133 83.4016 9.754C83.7936 9.98733 84.2509 10.104 84.7736 10.104C85.1003 10.104 85.3849 10.062 85.6276 9.978C85.8703 9.894 86.0803 9.79133 86.2576 9.67C86.4349 9.53933 86.5843 9.40867 86.7056 9.278C86.8269 9.194 86.9436 9.152 87.0556 9.152C87.1956 9.152 87.3076 9.19867 87.3916 9.292C87.4849 9.38533 87.5316 9.49733 87.5316 9.628C87.5316 9.78667 87.4569 9.92667 87.3076 10.048C87.0463 10.3373 86.6916 10.594 86.2436 10.818C85.7956 11.0327 85.3196 11.14 84.8156 11.14ZM90.055 11C89.8963 11 89.761 10.944 89.649 10.832C89.5463 10.72 89.495 10.5847 89.495 10.426V4.322C89.495 4.16333 89.5463 4.03267 89.649 3.93C89.761 3.818 89.8963 3.762 90.055 3.762C90.223 3.762 90.3583 3.818 90.461 3.93C90.5637 4.03267 90.615 4.16333 90.615 4.322V6.17L90.447 5.876C90.503 5.58667 90.601 5.30667 90.741 5.036C90.8903 4.756 91.077 4.50867 91.301 4.294C91.525 4.07 91.7817 3.89733 92.071 3.776C92.3603 3.64533 92.6777 3.58 93.023 3.58C93.2283 3.58 93.415 3.63133 93.583 3.734C93.7603 3.82733 93.849 3.96267 93.849 4.14C93.849 4.336 93.7977 4.48067 93.695 4.574C93.5923 4.66733 93.4757 4.714 93.345 4.714C93.2237 4.714 93.107 4.69067 92.995 4.644C92.883 4.588 92.743 4.56 92.575 4.56C92.3417 4.56 92.1083 4.62533 91.875 4.756C91.651 4.87733 91.441 5.05467 91.245 5.288C91.0583 5.52133 90.9043 5.78733 90.783 6.086C90.671 6.37533 90.615 6.688 90.615 7.024V10.426C90.615 10.5847 90.559 10.72 90.447 10.832C90.3443 10.944 90.2137 11 90.055 11ZM94.7081 9.852C94.6241 9.73067 94.5868 9.60467 94.5961 9.474C94.6055 9.334 94.6848 9.21267 94.8341 9.11C94.9275 9.04467 95.0348 9.01667 95.1561 9.026C95.2868 9.03533 95.4035 9.096 95.5061 9.208C95.7675 9.516 96.0661 9.76333 96.4021 9.95C96.7381 10.1273 97.1488 10.216 97.6341 10.216C97.8581 10.2067 98.0821 10.1693 98.3061 10.104C98.5301 10.0387 98.7168 9.92667 98.8661 9.768C99.0248 9.6 99.1041 9.38067 99.1041 9.11C99.1041 8.84867 99.0248 8.64333 98.8661 8.494C98.7075 8.33533 98.5021 8.20933 98.2501 8.116C97.9981 8.01333 97.7228 7.92467 97.4241 7.85C97.1161 7.766 96.8128 7.67267 96.5141 7.57C96.2155 7.458 95.9448 7.32267 95.7021 7.164C95.4688 6.996 95.2775 6.79067 95.1281 6.548C94.9881 6.296 94.9181 5.99267 94.9181 5.638C94.9181 5.218 95.0301 4.854 95.2541 4.546C95.4875 4.238 95.7955 4 96.1781 3.832C96.5701 3.664 96.9948 3.58 97.4521 3.58C97.7135 3.58 97.9841 3.61267 98.2641 3.678C98.5535 3.734 98.8335 3.83667 99.1041 3.986C99.3748 4.126 99.6128 4.322 99.8181 4.574C99.9021 4.66733 99.9488 4.784 99.9581 4.924C99.9675 5.064 99.9068 5.19 99.7761 5.302C99.6735 5.37667 99.5568 5.40933 99.4261 5.4C99.3048 5.39067 99.2021 5.344 99.1181 5.26C98.9221 5.02667 98.6748 4.84933 98.3761 4.728C98.0868 4.59733 97.7648 4.532 97.4101 4.532C97.1861 4.532 96.9668 4.56467 96.7521 4.63C96.5375 4.69533 96.3555 4.80733 96.2061 4.966C96.0661 5.11533 95.9961 5.32533 95.9961 5.596C96.0055 5.848 96.0895 6.05333 96.2481 6.212C96.4068 6.37067 96.6215 6.50133 96.8921 6.604C97.1628 6.69733 97.4615 6.79067 97.7881 6.884C98.0868 6.95867 98.3715 7.04733 98.6421 7.15C98.9221 7.24333 99.1741 7.36933 99.3981 7.528C99.6221 7.68667 99.7995 7.892 99.9301 8.144C100.061 8.38667 100.126 8.69467 100.126 9.068C100.126 9.49733 100.005 9.87067 99.7621 10.188C99.5195 10.496 99.1975 10.734 98.7961 10.902C98.4041 11.0607 97.9795 11.14 97.5221 11.14C97.0088 11.14 96.5001 11.042 95.9961 10.846C95.5015 10.65 95.0721 10.3187 94.7081 9.852Z" fill="#17171A"/>
</svg>
