<svg width="82" height="14" viewBox="0 0 82 14" fill="none" xmlns="http://www.w3.org/2000/svg">
<path d="M1.20834 1.186C1.29234 1.186 1.38101 1.20933 1.47434 1.256C1.57701 1.30267 1.65634 1.36333 1.71234 1.438L5.42234 7.052L4.93234 7.038L8.68434 1.438C8.80568 1.26067 8.96434 1.17667 9.16034 1.186C9.30968 1.19533 9.44034 1.25133 9.55234 1.354C9.66434 1.45667 9.72034 1.592 9.72034 1.76V10.426C9.72034 10.5847 9.66434 10.72 9.55234 10.832C9.44034 10.944 9.30034 11 9.13234 11C8.96434 11 8.82434 10.944 8.71234 10.832C8.60034 10.72 8.54434 10.5847 8.54434 10.426V2.824L8.89434 2.894L5.59034 7.92C5.53434 7.98533 5.46434 8.04133 5.38034 8.088C5.30568 8.13467 5.22634 8.158 5.14234 8.158C5.05834 8.158 4.97434 8.13467 4.89034 8.088C4.80634 8.04133 4.73634 7.98533 4.68034 7.92L1.41834 2.894L1.71234 2.53V10.426C1.71234 10.5847 1.66101 10.72 1.55834 10.832C1.45568 10.944 1.32501 11 1.16634 11C1.00768 11 0.87701 10.944 0.774344 10.832C0.681011 10.72 0.634344 10.5847 0.634344 10.426V1.76C0.634344 1.61067 0.685677 1.48 0.788344 1.368C0.900344 1.24667 1.04034 1.186 1.20834 1.186ZM17.9414 3.692C18.1001 3.692 18.2307 3.748 18.3334 3.86C18.4454 3.96267 18.5014 4.09333 18.5014 4.252V10.426C18.5014 10.5847 18.4454 10.72 18.3334 10.832C18.2307 10.944 18.1001 11 17.9414 11C17.7734 11 17.6381 10.944 17.5354 10.832C17.4327 10.72 17.3814 10.5847 17.3814 10.426V9.096L17.6474 9.068C17.6474 9.27333 17.5774 9.49733 17.4374 9.74C17.2974 9.98267 17.1061 10.2113 16.8634 10.426C16.6207 10.6313 16.3314 10.804 15.9954 10.944C15.6687 11.0747 15.3141 11.14 14.9314 11.14C14.2967 11.14 13.7274 10.9767 13.2234 10.65C12.7194 10.314 12.3181 9.86133 12.0194 9.292C11.7301 8.72267 11.5854 8.074 11.5854 7.346C11.5854 6.60867 11.7301 5.96 12.0194 5.4C12.3181 4.83067 12.7194 4.38733 13.2234 4.07C13.7274 3.74333 14.2874 3.58 14.9034 3.58C15.3047 3.58 15.6781 3.64533 16.0234 3.776C16.3687 3.90667 16.6674 4.084 16.9194 4.308C17.1807 4.532 17.3814 4.77933 17.5214 5.05C17.6707 5.32067 17.7454 5.59133 17.7454 5.862L17.3814 5.778V4.252C17.3814 4.09333 17.4327 3.96267 17.5354 3.86C17.6381 3.748 17.7734 3.692 17.9414 3.692ZM15.0574 10.104C15.5241 10.104 15.9347 9.98267 16.2894 9.74C16.6534 9.49733 16.9334 9.17067 17.1294 8.76C17.3347 8.34 17.4374 7.86867 17.4374 7.346C17.4374 6.83267 17.3347 6.37067 17.1294 5.96C16.9334 5.54 16.6534 5.21333 16.2894 4.98C15.9347 4.73733 15.5241 4.616 15.0574 4.616C14.6001 4.616 14.1894 4.73267 13.8254 4.966C13.4707 5.19933 13.1907 5.52133 12.9854 5.932C12.7801 6.34267 12.6774 6.814 12.6774 7.346C12.6774 7.86867 12.7754 8.34 12.9714 8.76C13.1767 9.17067 13.4567 9.49733 13.8114 9.74C14.1754 9.98267 14.5907 10.104 15.0574 10.104ZM24.175 3.58C24.8097 3.58 25.309 3.71067 25.673 3.972C26.037 4.23333 26.2937 4.58333 26.443 5.022C26.6017 5.46067 26.681 5.95067 26.681 6.492V10.426C26.681 10.5847 26.625 10.72 26.513 10.832C26.4103 10.944 26.2797 11 26.121 11C25.9623 11 25.827 10.944 25.715 10.832C25.6123 10.72 25.561 10.5847 25.561 10.426V6.52C25.561 6.16533 25.505 5.848 25.393 5.568C25.2903 5.27867 25.113 5.05 24.861 4.882C24.6183 4.70467 24.2823 4.616 23.853 4.616C23.461 4.616 23.1017 4.70467 22.775 4.882C22.4483 5.05 22.187 5.27867 21.991 5.568C21.795 5.848 21.697 6.16533 21.697 6.52V10.426C21.697 10.5847 21.641 10.72 21.529 10.832C21.4263 10.944 21.2957 11 21.137 11C20.9783 11 20.843 10.944 20.731 10.832C20.6283 10.72 20.577 10.5847 20.577 10.426V4.322C20.577 4.16333 20.6283 4.03267 20.731 3.93C20.843 3.818 20.9783 3.762 21.137 3.762C21.305 3.762 21.4403 3.818 21.543 3.93C21.6457 4.03267 21.697 4.16333 21.697 4.322V5.316L21.417 5.624C21.4637 5.38133 21.571 5.13867 21.739 4.896C21.907 4.644 22.117 4.42 22.369 4.224C22.621 4.028 22.901 3.874 23.209 3.762C23.517 3.64067 23.839 3.58 24.175 3.58ZM34.7168 3.692C34.8755 3.692 35.0061 3.748 35.1088 3.86C35.2208 3.96267 35.2768 4.09333 35.2768 4.252V10.426C35.2768 10.5847 35.2208 10.72 35.1088 10.832C35.0061 10.944 34.8755 11 34.7168 11C34.5488 11 34.4135 10.944 34.3108 10.832C34.2081 10.72 34.1568 10.5847 34.1568 10.426V9.096L34.4228 9.068C34.4228 9.27333 34.3528 9.49733 34.2128 9.74C34.0728 9.98267 33.8815 10.2113 33.6388 10.426C33.3961 10.6313 33.1068 10.804 32.7708 10.944C32.4441 11.0747 32.0895 11.14 31.7068 11.14C31.0721 11.14 30.5028 10.9767 29.9988 10.65C29.4948 10.314 29.0935 9.86133 28.7948 9.292C28.5055 8.72267 28.3608 8.074 28.3608 7.346C28.3608 6.60867 28.5055 5.96 28.7948 5.4C29.0935 4.83067 29.4948 4.38733 29.9988 4.07C30.5028 3.74333 31.0628 3.58 31.6788 3.58C32.0801 3.58 32.4535 3.64533 32.7988 3.776C33.1441 3.90667 33.4428 4.084 33.6948 4.308C33.9561 4.532 34.1568 4.77933 34.2968 5.05C34.4461 5.32067 34.5208 5.59133 34.5208 5.862L34.1568 5.778V4.252C34.1568 4.09333 34.2081 3.96267 34.3108 3.86C34.4135 3.748 34.5488 3.692 34.7168 3.692ZM31.8328 10.104C32.2995 10.104 32.7101 9.98267 33.0648 9.74C33.4288 9.49733 33.7088 9.17067 33.9048 8.76C34.1101 8.34 34.2128 7.86867 34.2128 7.346C34.2128 6.83267 34.1101 6.37067 33.9048 5.96C33.7088 5.54 33.4288 5.21333 33.0648 4.98C32.7101 4.73733 32.2995 4.616 31.8328 4.616C31.3755 4.616 30.9648 4.73267 30.6008 4.966C30.2461 5.19933 29.9661 5.52133 29.7608 5.932C29.5555 6.34267 29.4528 6.814 29.4528 7.346C29.4528 7.86867 29.5508 8.34 29.7468 8.76C29.9521 9.17067 30.2321 9.49733 30.5868 9.74C30.9508 9.98267 31.3661 10.104 31.8328 10.104ZM40.3904 3.58C40.7917 3.58 41.1651 3.65 41.5104 3.79C41.8557 3.92067 42.1544 4.09333 42.4064 4.308C42.6677 4.52267 42.8684 4.74667 43.0084 4.98C43.1577 5.21333 43.2324 5.43267 43.2324 5.638L42.9664 5.47V4.252C42.9664 4.09333 43.0177 3.96267 43.1204 3.86C43.2231 3.748 43.3584 3.692 43.5264 3.692C43.6851 3.692 43.8157 3.748 43.9184 3.86C44.0304 3.96267 44.0864 4.09333 44.0864 4.252V10.384C44.0864 11.1493 43.9231 11.784 43.5964 12.288C43.2791 12.792 42.8497 13.17 42.3084 13.422C41.7671 13.674 41.1604 13.8 40.4884 13.8C40.2084 13.8 39.9004 13.7627 39.5644 13.688C39.2284 13.6133 38.9297 13.52 38.6684 13.408C38.4071 13.3053 38.2391 13.198 38.1644 13.086C38.0244 12.9927 37.9357 12.8853 37.8984 12.764C37.8704 12.652 37.8937 12.5447 37.9684 12.442C38.0524 12.3113 38.1597 12.246 38.2904 12.246C38.4304 12.246 38.6031 12.288 38.8084 12.372C38.8924 12.4 39.0231 12.4467 39.2004 12.512C39.3871 12.5773 39.5924 12.6333 39.8164 12.68C40.0497 12.736 40.2784 12.764 40.5024 12.764C41.2957 12.764 41.9024 12.554 42.3224 12.134C42.7517 11.7233 42.9664 11.1773 42.9664 10.496V9.194L43.1204 9.264C43.0644 9.52533 42.9477 9.768 42.7704 9.992C42.6024 10.216 42.3924 10.4167 42.1404 10.594C41.8977 10.762 41.6271 10.8973 41.3284 11C41.0297 11.0933 40.7264 11.14 40.4184 11.14C39.7651 11.14 39.1771 10.9767 38.6544 10.65C38.1317 10.3233 37.7164 9.87533 37.4084 9.306C37.1097 8.73667 36.9604 8.088 36.9604 7.36C36.9604 6.62267 37.1097 5.96933 37.4084 5.4C37.7164 4.83067 38.1271 4.38733 38.6404 4.07C39.1631 3.74333 39.7464 3.58 40.3904 3.58ZM40.5304 4.616C40.0544 4.616 39.6251 4.73733 39.2424 4.98C38.8691 5.21333 38.5751 5.53533 38.3604 5.946C38.1551 6.35667 38.0524 6.828 38.0524 7.36C38.0524 7.87333 38.1551 8.34 38.3604 8.76C38.5751 9.17067 38.8691 9.49733 39.2424 9.74C39.6251 9.98267 40.0544 10.104 40.5304 10.104C41.0157 10.104 41.4451 9.98733 41.8184 9.754C42.1917 9.51133 42.4857 9.18467 42.7004 8.774C42.9151 8.36333 43.0224 7.892 43.0224 7.36C43.0224 6.81867 42.9151 6.34267 42.7004 5.932C42.4857 5.52133 42.1917 5.19933 41.8184 4.966C41.4451 4.73267 41.0157 4.616 40.5304 4.616ZM49.2297 11.14C48.483 11.14 47.8297 10.9813 47.2697 10.664C46.7097 10.3467 46.271 9.91267 45.9537 9.362C45.6457 8.802 45.4917 8.158 45.4917 7.43C45.4917 6.618 45.6503 5.92733 45.9677 5.358C46.2943 4.77933 46.7143 4.34067 47.2277 4.042C47.7503 3.734 48.301 3.58 48.8797 3.58C49.309 3.58 49.7243 3.65933 50.1257 3.818C50.527 3.97667 50.8817 4.21 51.1897 4.518C51.4977 4.81667 51.745 5.18067 51.9317 5.61C52.1183 6.03 52.2163 6.50133 52.2257 7.024C52.2257 7.17333 52.1697 7.29933 52.0577 7.402C51.9457 7.50467 51.815 7.556 51.6657 7.556H46.1357L45.8837 6.59H51.2737L51.0497 6.786V6.478C51.0123 6.09533 50.8817 5.76867 50.6577 5.498C50.443 5.218 50.177 5.00333 49.8597 4.854C49.5517 4.70467 49.225 4.63 48.8797 4.63C48.5997 4.63 48.3197 4.68133 48.0397 4.784C47.769 4.87733 47.5217 5.036 47.2977 5.26C47.083 5.47467 46.9057 5.75467 46.7657 6.1C46.635 6.44533 46.5697 6.86067 46.5697 7.346C46.5697 7.88733 46.677 8.36333 46.8917 8.774C47.1157 9.18467 47.4237 9.51133 47.8157 9.754C48.2077 9.98733 48.665 10.104 49.1877 10.104C49.5143 10.104 49.799 10.062 50.0417 9.978C50.2843 9.894 50.4943 9.79133 50.6717 9.67C50.849 9.53933 50.9983 9.40867 51.1197 9.278C51.241 9.194 51.3577 9.152 51.4697 9.152C51.6097 9.152 51.7217 9.19867 51.8057 9.292C51.899 9.38533 51.9457 9.49733 51.9457 9.628C51.9457 9.78667 51.871 9.92667 51.7217 10.048C51.4603 10.3373 51.1057 10.594 50.6577 10.818C50.2097 11.0327 49.7337 11.14 49.2297 11.14ZM60.8165 11.14C60.1258 11.14 59.5192 11.0373 58.9965 10.832C58.4738 10.6267 57.9698 10.3 57.4845 9.852C57.4192 9.78667 57.3632 9.71667 57.3165 9.642C57.2792 9.558 57.2605 9.46933 57.2605 9.376C57.2605 9.22667 57.3118 9.096 57.4145 8.984C57.5265 8.86267 57.6618 8.802 57.8205 8.802C57.9512 8.802 58.0678 8.85333 58.1705 8.956C58.5345 9.31067 58.9265 9.58133 59.3465 9.768C59.7758 9.95467 60.2565 10.048 60.7885 10.048C61.1992 10.048 61.5678 9.98267 61.8945 9.852C62.2305 9.72133 62.4965 9.53933 62.6925 9.306C62.8885 9.07267 62.9865 8.802 62.9865 8.494C62.9772 8.12067 62.8652 7.81267 62.6505 7.57C62.4452 7.32733 62.1558 7.12667 61.7825 6.968C61.4185 6.8 60.9938 6.66 60.5085 6.548C60.0792 6.44533 59.6825 6.31933 59.3185 6.17C58.9638 6.02067 58.6558 5.83867 58.3945 5.624C58.1332 5.4 57.9278 5.134 57.7785 4.826C57.6385 4.50867 57.5685 4.14 57.5685 3.72C57.5685 3.188 57.7085 2.72133 57.9885 2.32C58.2685 1.91867 58.6558 1.61067 59.1505 1.396C59.6452 1.172 60.2145 1.06 60.8585 1.06C61.4278 1.06 61.9645 1.15333 62.4685 1.34C62.9818 1.52667 63.3925 1.78333 63.7005 2.11C63.8872 2.28733 63.9805 2.46 63.9805 2.628C63.9805 2.768 63.9198 2.89867 63.7985 3.02C63.6865 3.132 63.5558 3.188 63.4065 3.188C63.3038 3.188 63.2105 3.15067 63.1265 3.076C62.9678 2.89867 62.7672 2.74 62.5245 2.6C62.2818 2.46 62.0158 2.348 61.7265 2.264C61.4372 2.18 61.1478 2.138 60.8585 2.138C60.4292 2.138 60.0512 2.20333 59.7245 2.334C59.3978 2.45533 59.1412 2.63267 58.9545 2.866C58.7772 3.09 58.6885 3.36067 58.6885 3.678C58.6885 4.03267 58.7912 4.32667 58.9965 4.56C59.2018 4.784 59.4772 4.97067 59.8225 5.12C60.1678 5.26 60.5505 5.386 60.9705 5.498C61.4278 5.61 61.8478 5.74067 62.2305 5.89C62.6225 6.03 62.9585 6.20733 63.2385 6.422C63.5185 6.63667 63.7332 6.912 63.8825 7.248C64.0412 7.57467 64.1205 7.98067 64.1205 8.466C64.1205 8.97933 63.9758 9.43667 63.6865 9.838C63.3972 10.2393 63.0005 10.5567 62.4965 10.79C62.0018 11.014 61.4418 11.1307 60.8165 11.14ZM69.1496 11.14C68.4029 11.14 67.7496 10.9813 67.1896 10.664C66.6296 10.3467 66.1909 9.91267 65.8736 9.362C65.5656 8.802 65.4116 8.158 65.4116 7.43C65.4116 6.618 65.5702 5.92733 65.8876 5.358C66.2142 4.77933 66.6342 4.34067 67.1476 4.042C67.6702 3.734 68.2209 3.58 68.7996 3.58C69.2289 3.58 69.6442 3.65933 70.0456 3.818C70.4469 3.97667 70.8016 4.21 71.1096 4.518C71.4176 4.81667 71.6649 5.18067 71.8516 5.61C72.0382 6.03 72.1362 6.50133 72.1456 7.024C72.1456 7.17333 72.0896 7.29933 71.9776 7.402C71.8656 7.50467 71.7349 7.556 71.5856 7.556H66.0556L65.8036 6.59H71.1936L70.9696 6.786V6.478C70.9322 6.09533 70.8016 5.76867 70.5776 5.498C70.3629 5.218 70.0969 5.00333 69.7796 4.854C69.4716 4.70467 69.1449 4.63 68.7996 4.63C68.5196 4.63 68.2396 4.68133 67.9596 4.784C67.6889 4.87733 67.4416 5.036 67.2176 5.26C67.0029 5.47467 66.8256 5.75467 66.6856 6.1C66.5549 6.44533 66.4896 6.86067 66.4896 7.346C66.4896 7.88733 66.5969 8.36333 66.8116 8.774C67.0356 9.18467 67.3436 9.51133 67.7356 9.754C68.1276 9.98733 68.5849 10.104 69.1076 10.104C69.4342 10.104 69.7189 10.062 69.9616 9.978C70.2042 9.894 70.4142 9.79133 70.5916 9.67C70.7689 9.53933 70.9182 9.40867 71.0396 9.278C71.1609 9.194 71.2776 9.152 71.3896 9.152C71.5296 9.152 71.6416 9.19867 71.7256 9.292C71.8189 9.38533 71.8656 9.49733 71.8656 9.628C71.8656 9.78667 71.7909 9.92667 71.6416 10.048C71.3802 10.3373 71.0256 10.594 70.5776 10.818C70.1296 11.0327 69.6536 11.14 69.1496 11.14ZM75.061 10.426C75.061 10.5847 75.005 10.72 74.893 10.832C74.781 10.944 74.6456 11 74.487 11C74.3283 11 74.1976 10.944 74.095 10.832C73.9923 10.72 73.941 10.5847 73.941 10.426V1.2C73.941 1.04133 73.9923 0.910666 74.095 0.807999C74.207 0.696 74.3423 0.64 74.501 0.64C74.669 0.64 74.8043 0.696 74.907 0.807999C75.0096 0.910666 75.061 1.04133 75.061 1.2V10.426ZM80.2573 0.668C80.4159 0.668 80.5793 0.686666 80.7473 0.724C80.9246 0.761333 81.0739 0.826666 81.1953 0.92C81.3259 1.01333 81.3913 1.13933 81.3913 1.298C81.3913 1.44733 81.3446 1.57333 81.2513 1.676C81.1579 1.76933 81.0459 1.816 80.9153 1.816C80.8313 1.816 80.7146 1.79267 80.5653 1.746C80.4159 1.69 80.2619 1.662 80.1033 1.662C79.8886 1.662 79.7113 1.70867 79.5713 1.802C79.4406 1.89533 79.3426 2.02133 79.2773 2.18C79.2213 2.32933 79.1933 2.49733 79.1933 2.684V10.426C79.1933 10.5847 79.1373 10.72 79.0253 10.832C78.9226 10.944 78.7919 11 78.6333 11C78.4653 11 78.3299 10.944 78.2273 10.832C78.1246 10.72 78.0733 10.5847 78.0733 10.426V2.698C78.0733 2.07267 78.2646 1.578 78.6473 1.214C79.0393 0.849999 79.5759 0.668 80.2573 0.668ZM80.6493 3.874C80.7986 3.874 80.9246 3.92533 81.0273 4.028C81.1299 4.12133 81.1813 4.24267 81.1813 4.392C81.1813 4.54133 81.1299 4.66733 81.0273 4.77C80.9246 4.86333 80.7986 4.91 80.6493 4.91H77.1353C76.9859 4.91 76.8599 4.85867 76.7573 4.756C76.6546 4.65333 76.6033 4.532 76.6033 4.392C76.6033 4.23333 76.6546 4.10733 76.7573 4.014C76.8599 3.92067 76.9859 3.874 77.1353 3.874H80.6493Z" fill="#17171A"/>
</svg>
