<svg width="144" height="14" viewBox="0 0 144 14" fill="none" xmlns="http://www.w3.org/2000/svg">
<path d="M10.1861 6.1C10.1861 6.81867 10.0695 7.486 9.83612 8.102C9.60278 8.70867 9.27612 9.24067 8.85612 9.698C8.43612 10.1553 7.93678 10.51 7.35812 10.762C6.77945 11.014 6.14945 11.14 5.46812 11.14C4.77745 11.14 4.14278 11.014 3.56412 10.762C2.99478 10.51 2.50012 10.1553 2.08012 9.698C1.66012 9.24067 1.33345 8.70867 1.10012 8.102C0.866784 7.486 0.750117 6.81867 0.750117 6.1C0.750117 5.372 0.866784 4.70467 1.10012 4.098C1.33345 3.482 1.66012 2.95 2.08012 2.502C2.50012 2.04467 2.99478 1.69 3.56412 1.438C4.14278 1.186 4.77745 1.06 5.46812 1.06C6.14945 1.06 6.77945 1.186 7.35812 1.438C7.93678 1.69 8.43612 2.04467 8.85612 2.502C9.27612 2.95 9.60278 3.482 9.83612 4.098C10.0695 4.70467 10.1861 5.372 10.1861 6.1ZM8.98212 6.1C8.98212 5.33467 8.82812 4.658 8.52012 4.07C8.22145 3.482 7.81078 3.02 7.28812 2.684C6.76545 2.348 6.15878 2.18 5.46812 2.18C4.77745 2.18 4.16612 2.348 3.63412 2.684C3.11145 3.02 2.70078 3.482 2.40212 4.07C2.10345 4.658 1.95412 5.33467 1.95412 6.1C1.95412 6.856 2.10345 7.53267 2.40212 8.13C2.70078 8.718 3.11145 9.18 3.63412 9.516C4.16612 9.852 4.77745 10.02 5.46812 10.02C6.15878 10.02 6.76545 9.852 7.28812 9.516C7.81078 9.18 8.22145 8.718 8.52012 8.13C8.82812 7.53267 8.98212 6.856 8.98212 6.1ZM11.8475 3.636C11.9595 3.636 12.0669 3.66867 12.1695 3.734C12.2722 3.79 12.3469 3.874 12.3935 3.986L14.7175 9.446L14.4935 9.558L16.8595 4C16.9622 3.748 17.1349 3.62667 17.3775 3.636C17.5175 3.636 17.6389 3.68267 17.7415 3.776C17.8442 3.86933 17.8955 3.986 17.8955 4.126C17.8955 4.182 17.8862 4.238 17.8675 4.294C17.8582 4.34067 17.8442 4.38267 17.8255 4.42L15.1235 10.636C15.0209 10.8693 14.8575 10.9907 14.6335 11C14.5122 11.0093 14.3955 10.986 14.2835 10.93C14.1809 10.8647 14.1062 10.7667 14.0595 10.636L11.3575 4.434C11.3389 4.39667 11.3202 4.35467 11.3015 4.308C11.2922 4.26133 11.2875 4.20533 11.2875 4.14C11.2875 4.01867 11.3342 3.90667 11.4275 3.804C11.5302 3.692 11.6702 3.636 11.8475 3.636ZM22.6857 11.14C21.939 11.14 21.2857 10.9813 20.7257 10.664C20.1657 10.3467 19.727 9.91267 19.4097 9.362C19.1017 8.802 18.9477 8.158 18.9477 7.43C18.9477 6.618 19.1064 5.92733 19.4237 5.358C19.7504 4.77933 20.1704 4.34067 20.6837 4.042C21.2064 3.734 21.757 3.58 22.3357 3.58C22.765 3.58 23.1804 3.65933 23.5817 3.818C23.983 3.97667 24.3377 4.21 24.6457 4.518C24.9537 4.81667 25.201 5.18067 25.3877 5.61C25.5744 6.03 25.6724 6.50133 25.6817 7.024C25.6817 7.17333 25.6257 7.29933 25.5137 7.402C25.4017 7.50467 25.271 7.556 25.1217 7.556H19.5917L19.3397 6.59H24.7297L24.5057 6.786V6.478C24.4684 6.09533 24.3377 5.76867 24.1137 5.498C23.899 5.218 23.633 5.00333 23.3157 4.854C23.0077 4.70467 22.681 4.63 22.3357 4.63C22.0557 4.63 21.7757 4.68133 21.4957 4.784C21.225 4.87733 20.9777 5.036 20.7537 5.26C20.539 5.47467 20.3617 5.75467 20.2217 6.1C20.091 6.44533 20.0257 6.86067 20.0257 7.346C20.0257 7.88733 20.133 8.36333 20.3477 8.774C20.5717 9.18467 20.8797 9.51133 21.2717 9.754C21.6637 9.98733 22.121 10.104 22.6437 10.104C22.9704 10.104 23.255 10.062 23.4977 9.978C23.7404 9.894 23.9504 9.79133 24.1277 9.67C24.305 9.53933 24.4544 9.40867 24.5757 9.278C24.697 9.194 24.8137 9.152 24.9257 9.152C25.0657 9.152 25.1777 9.19867 25.2617 9.292C25.355 9.38533 25.4017 9.49733 25.4017 9.628C25.4017 9.78667 25.327 9.92667 25.1777 10.048C24.9164 10.3373 24.5617 10.594 24.1137 10.818C23.6657 11.0327 23.1897 11.14 22.6857 11.14ZM27.9251 11C27.7664 11 27.6311 10.944 27.5191 10.832C27.4164 10.72 27.3651 10.5847 27.3651 10.426V4.322C27.3651 4.16333 27.4164 4.03267 27.5191 3.93C27.6311 3.818 27.7664 3.762 27.9251 3.762C28.0931 3.762 28.2284 3.818 28.3311 3.93C28.4338 4.03267 28.4851 4.16333 28.4851 4.322V6.17L28.3171 5.876C28.3731 5.58667 28.4711 5.30667 28.6111 5.036C28.7604 4.756 28.9471 4.50867 29.1711 4.294C29.3951 4.07 29.6518 3.89733 29.9411 3.776C30.2304 3.64533 30.5478 3.58 30.8931 3.58C31.0984 3.58 31.2851 3.63133 31.4531 3.734C31.6304 3.82733 31.7191 3.96267 31.7191 4.14C31.7191 4.336 31.6678 4.48067 31.5651 4.574C31.4624 4.66733 31.3458 4.714 31.2151 4.714C31.0938 4.714 30.9771 4.69067 30.8651 4.644C30.7531 4.588 30.6131 4.56 30.4451 4.56C30.2118 4.56 29.9784 4.62533 29.7451 4.756C29.5211 4.87733 29.3111 5.05467 29.1151 5.288C28.9284 5.52133 28.7744 5.78733 28.6531 6.086C28.5411 6.37533 28.4851 6.688 28.4851 7.024V10.426C28.4851 10.5847 28.4291 10.72 28.3171 10.832C28.2144 10.944 28.0838 11 27.9251 11ZM35.8898 3.58C36.3658 3.58 36.7951 3.63133 37.1778 3.734C37.5605 3.83667 37.8638 3.97667 38.0878 4.154C38.3118 4.33133 38.4238 4.532 38.4238 4.756C38.4238 4.87733 38.3818 4.994 38.2978 5.106C38.2138 5.218 38.1018 5.274 37.9618 5.274C37.8311 5.274 37.7238 5.25067 37.6398 5.204C37.5651 5.15733 37.4905 5.09667 37.4158 5.022C37.3505 4.94733 37.2571 4.882 37.1358 4.826C37.0238 4.76067 36.8605 4.70933 36.6458 4.672C36.4311 4.63467 36.2165 4.616 36.0018 4.616C35.4885 4.616 35.0358 4.73733 34.6438 4.98C34.2611 5.22267 33.9578 5.54933 33.7338 5.96C33.5098 6.37067 33.3978 6.83733 33.3978 7.36C33.3978 7.88267 33.5051 8.34933 33.7198 8.76C33.9345 9.17067 34.2331 9.49733 34.6158 9.74C34.9985 9.98267 35.4418 10.104 35.9458 10.104C36.2725 10.104 36.5338 10.076 36.7298 10.02C36.9258 9.964 37.0891 9.89867 37.2198 9.824C37.3878 9.73067 37.5138 9.63733 37.5978 9.544C37.6911 9.45067 37.8125 9.404 37.9618 9.404C38.1205 9.404 38.2418 9.45533 38.3258 9.558C38.4191 9.66067 38.4658 9.78667 38.4658 9.936C38.4658 10.104 38.3491 10.2813 38.1158 10.468C37.8825 10.6547 37.5651 10.8133 37.1638 10.944C36.7718 11.0747 36.3238 11.14 35.8198 11.14C35.1105 11.14 34.4898 10.9767 33.9578 10.65C33.4258 10.314 33.0105 9.86133 32.7118 9.292C32.4225 8.71333 32.2778 8.06933 32.2778 7.36C32.2778 6.65067 32.4271 6.01133 32.7258 5.442C33.0338 4.87267 33.4585 4.42 33.9998 4.084C34.5411 3.748 35.1711 3.58 35.8898 3.58ZM46.8036 7.36C46.8036 8.088 46.6402 8.73667 46.3136 9.306C45.9962 9.87533 45.5622 10.3233 45.0116 10.65C44.4702 10.9767 43.8589 11.14 43.1776 11.14C42.4962 11.14 41.8802 10.9767 41.3296 10.65C40.7789 10.3233 40.3402 9.87533 40.0136 9.306C39.6962 8.73667 39.5376 8.088 39.5376 7.36C39.5376 6.632 39.6962 5.98333 40.0136 5.414C40.3402 4.84467 40.7789 4.39667 41.3296 4.07C41.8802 3.74333 42.4962 3.58 43.1776 3.58C43.8589 3.58 44.4702 3.74333 45.0116 4.07C45.5622 4.39667 45.9962 4.84467 46.3136 5.414C46.6402 5.98333 46.8036 6.632 46.8036 7.36ZM45.6836 7.36C45.6836 6.81867 45.5716 6.34267 45.3476 5.932C45.1329 5.52133 44.8342 5.19933 44.4516 4.966C44.0782 4.73267 43.6536 4.616 43.1776 4.616C42.7016 4.616 42.2722 4.73267 41.8896 4.966C41.5162 5.19933 41.2176 5.52133 40.9936 5.932C40.7696 6.34267 40.6576 6.81867 40.6576 7.36C40.6576 7.892 40.7696 8.36333 40.9936 8.774C41.2176 9.18467 41.5162 9.51133 41.8896 9.754C42.2722 9.98733 42.7016 10.104 43.1776 10.104C43.6536 10.104 44.0782 9.98733 44.4516 9.754C44.8342 9.51133 45.1329 9.18467 45.3476 8.774C45.5716 8.36333 45.6836 7.892 45.6836 7.36ZM51.9461 3.65C52.5808 3.65 53.0941 3.81333 53.4861 4.14C53.8875 4.45733 54.1535 4.91 54.2841 5.498H54.0741L54.1721 5.246C54.2841 4.98467 54.4755 4.73267 54.7461 4.49C55.0168 4.24733 55.3295 4.04667 55.6841 3.888C56.0388 3.72933 56.4075 3.65 56.7901 3.65C57.4061 3.65 57.8915 3.78533 58.2461 4.056C58.6008 4.31733 58.8528 4.672 59.0021 5.12C59.1608 5.55867 59.2401 6.05333 59.2401 6.604V10.426C59.2401 10.5847 59.1841 10.72 59.0721 10.832C58.9695 10.944 58.8388 11 58.6801 11C58.5121 11 58.3768 10.944 58.2741 10.832C58.1715 10.72 58.1201 10.5847 58.1201 10.426V6.632C58.1201 6.268 58.0641 5.94133 57.9521 5.652C57.8495 5.35333 57.6768 5.12 57.4341 4.952C57.2008 4.77467 56.8788 4.686 56.4681 4.686C56.0855 4.686 55.7355 4.77467 55.4181 4.952C55.1008 5.12 54.8488 5.35333 54.6621 5.652C54.4755 5.94133 54.3821 6.268 54.3821 6.632V10.426C54.3821 10.5847 54.3308 10.72 54.2281 10.832C54.1255 10.944 53.9901 11 53.8221 11C53.6635 11 53.5281 10.944 53.4161 10.832C53.3135 10.72 53.2621 10.5847 53.2621 10.426V6.59C53.2621 6.23533 53.2108 5.918 53.1081 5.638C53.0148 5.34867 52.8515 5.12 52.6181 4.952C52.3848 4.77467 52.0628 4.686 51.6521 4.686C51.2788 4.686 50.9381 4.77467 50.6301 4.952C50.3221 5.12 50.0748 5.34867 49.8881 5.638C49.7015 5.918 49.6081 6.23533 49.6081 6.59V10.426C49.6081 10.5847 49.5521 10.72 49.4401 10.832C49.3375 10.944 49.2068 11 49.0481 11C48.8895 11 48.7541 10.944 48.6421 10.832C48.5395 10.72 48.4881 10.5847 48.4881 10.426V4.322C48.4881 4.16333 48.5395 4.03267 48.6421 3.93C48.7541 3.818 48.8895 3.762 49.0481 3.762C49.2161 3.762 49.3515 3.818 49.4541 3.93C49.5568 4.03267 49.6081 4.16333 49.6081 4.322V5.386L49.3001 5.722C49.3375 5.47933 49.4308 5.23667 49.5801 4.994C49.7388 4.75133 49.9395 4.52733 50.1821 4.322C50.4248 4.11667 50.6955 3.95333 50.9941 3.832C51.2928 3.71067 51.6101 3.65 51.9461 3.65ZM64.6584 11.14C63.9117 11.14 63.2584 10.9813 62.6984 10.664C62.1384 10.3467 61.6997 9.91267 61.3824 9.362C61.0744 8.802 60.9204 8.158 60.9204 7.43C60.9204 6.618 61.079 5.92733 61.3964 5.358C61.723 4.77933 62.143 4.34067 62.6564 4.042C63.179 3.734 63.7297 3.58 64.3084 3.58C64.7377 3.58 65.153 3.65933 65.5544 3.818C65.9557 3.97667 66.3104 4.21 66.6184 4.518C66.9264 4.81667 67.1737 5.18067 67.3604 5.61C67.547 6.03 67.645 6.50133 67.6544 7.024C67.6544 7.17333 67.5984 7.29933 67.4864 7.402C67.3744 7.50467 67.2437 7.556 67.0944 7.556H61.5644L61.3124 6.59H66.7024L66.4784 6.786V6.478C66.441 6.09533 66.3104 5.76867 66.0864 5.498C65.8717 5.218 65.6057 5.00333 65.2884 4.854C64.9804 4.70467 64.6537 4.63 64.3084 4.63C64.0284 4.63 63.7484 4.68133 63.4684 4.784C63.1977 4.87733 62.9504 5.036 62.7264 5.26C62.5117 5.47467 62.3344 5.75467 62.1944 6.1C62.0637 6.44533 61.9984 6.86067 61.9984 7.346C61.9984 7.88733 62.1057 8.36333 62.3204 8.774C62.5444 9.18467 62.8524 9.51133 63.2444 9.754C63.6364 9.98733 64.0937 10.104 64.6164 10.104C64.943 10.104 65.2277 10.062 65.4704 9.978C65.713 9.894 65.923 9.79133 66.1004 9.67C66.2777 9.53933 66.427 9.40867 66.5484 9.278C66.6697 9.194 66.7864 9.152 66.8984 9.152C67.0384 9.152 67.1504 9.19867 67.2344 9.292C67.3277 9.38533 67.3744 9.49733 67.3744 9.628C67.3744 9.78667 67.2997 9.92667 67.1504 10.048C66.889 10.3373 66.5344 10.594 66.0864 10.818C65.6384 11.0327 65.1624 11.14 64.6584 11.14ZM80.4452 1.844C80.6039 1.928 80.6926 2.054 80.7112 2.222C80.7392 2.39 80.6972 2.544 80.5852 2.684C80.5012 2.80533 80.3939 2.87067 80.2632 2.88C80.1326 2.88933 80.0019 2.86133 79.8712 2.796C79.5632 2.60933 79.2319 2.46467 78.8772 2.362C78.5226 2.25 78.1492 2.194 77.7572 2.194C77.2066 2.194 76.7026 2.292 76.2452 2.488C75.7879 2.67467 75.3912 2.94067 75.0552 3.286C74.7192 3.63133 74.4579 4.042 74.2712 4.518C74.0846 4.994 73.9912 5.52133 73.9912 6.1C73.9912 6.716 74.0892 7.26667 74.2852 7.752C74.4812 8.23733 74.7472 8.65267 75.0832 8.998C75.4286 9.334 75.8252 9.59067 76.2732 9.768C76.7306 9.94533 77.2252 10.034 77.7572 10.034C78.1399 10.034 78.5086 9.98267 78.8632 9.88C79.2179 9.77733 79.5539 9.628 79.8712 9.432C80.0019 9.36667 80.1326 9.34333 80.2632 9.362C80.3939 9.38067 80.5059 9.446 80.5992 9.558C80.7112 9.70733 80.7532 9.866 80.7252 10.034C80.6972 10.1927 80.6086 10.3093 80.4592 10.384C80.2259 10.524 79.9599 10.6547 79.6612 10.776C79.3626 10.888 79.0499 10.9767 78.7232 11.042C78.4059 11.1073 78.0839 11.14 77.7572 11.14C77.0852 11.14 76.4506 11.0233 75.8532 10.79C75.2559 10.5567 74.7286 10.2207 74.2712 9.782C73.8139 9.34333 73.4499 8.816 73.1792 8.2C72.9179 7.57467 72.7872 6.87467 72.7872 6.1C72.7872 5.372 72.9132 4.70467 73.1652 4.098C73.4172 3.49133 73.7672 2.964 74.2152 2.516C74.6726 2.068 75.1999 1.718 75.7972 1.466C76.4039 1.214 77.0572 1.088 77.7572 1.088C78.2426 1.088 78.7139 1.15333 79.1712 1.284C79.6379 1.41467 80.0626 1.60133 80.4452 1.844ZM85.7167 3.65C86.3327 3.65 86.818 3.78533 87.1727 4.056C87.5367 4.31733 87.7933 4.672 87.9427 5.12C88.1013 5.55867 88.1807 6.04867 88.1807 6.59V10.426C88.1807 10.5847 88.1247 10.72 88.0127 10.832C87.91 10.944 87.7793 11 87.6207 11C87.462 11 87.3267 10.944 87.2147 10.832C87.112 10.72 87.0607 10.5847 87.0607 10.426V6.59C87.0607 6.23533 87.0093 5.918 86.9067 5.638C86.804 5.34867 86.6313 5.12 86.3887 4.952C86.1553 4.77467 85.8333 4.686 85.4227 4.686C85.04 4.686 84.69 4.77467 84.3727 4.952C84.0553 5.12 83.8033 5.34867 83.6167 5.638C83.43 5.918 83.3367 6.23533 83.3367 6.59V10.426C83.3367 10.5847 83.2807 10.72 83.1687 10.832C83.066 10.944 82.9353 11 82.7767 11C82.618 11 82.4827 10.944 82.3707 10.832C82.268 10.72 82.2167 10.5847 82.2167 10.426V1.2C82.2167 1.04133 82.268 0.910666 82.3707 0.807999C82.4827 0.696 82.618 0.64 82.7767 0.64C82.9447 0.64 83.08 0.696 83.1827 0.807999C83.2853 0.910666 83.3367 1.04133 83.3367 1.2V5.386L83.0567 5.694C83.1033 5.45133 83.206 5.20867 83.3647 4.966C83.5233 4.714 83.724 4.49 83.9667 4.294C84.2093 4.098 84.48 3.944 84.7787 3.832C85.0773 3.71067 85.39 3.65 85.7167 3.65ZM96.2197 3.692C96.3784 3.692 96.5091 3.748 96.6117 3.86C96.7237 3.96267 96.7797 4.09333 96.7797 4.252V10.426C96.7797 10.5847 96.7237 10.72 96.6117 10.832C96.5091 10.944 96.3784 11 96.2197 11C96.0517 11 95.9164 10.944 95.8137 10.832C95.7111 10.72 95.6597 10.5847 95.6597 10.426V9.096L95.9257 9.068C95.9257 9.27333 95.8557 9.49733 95.7157 9.74C95.5757 9.98267 95.3844 10.2113 95.1417 10.426C94.8991 10.6313 94.6097 10.804 94.2737 10.944C93.9471 11.0747 93.5924 11.14 93.2097 11.14C92.5751 11.14 92.0057 10.9767 91.5017 10.65C90.9977 10.314 90.5964 9.86133 90.2977 9.292C90.0084 8.72267 89.8637 8.074 89.8637 7.346C89.8637 6.60867 90.0084 5.96 90.2977 5.4C90.5964 4.83067 90.9977 4.38733 91.5017 4.07C92.0057 3.74333 92.5657 3.58 93.1817 3.58C93.5831 3.58 93.9564 3.64533 94.3017 3.776C94.6471 3.90667 94.9457 4.084 95.1977 4.308C95.4591 4.532 95.6597 4.77933 95.7997 5.05C95.9491 5.32067 96.0237 5.59133 96.0237 5.862L95.6597 5.778V4.252C95.6597 4.09333 95.7111 3.96267 95.8137 3.86C95.9164 3.748 96.0517 3.692 96.2197 3.692ZM93.3357 10.104C93.8024 10.104 94.2131 9.98267 94.5677 9.74C94.9317 9.49733 95.2117 9.17067 95.4077 8.76C95.6131 8.34 95.7157 7.86867 95.7157 7.346C95.7157 6.83267 95.6131 6.37067 95.4077 5.96C95.2117 5.54 94.9317 5.21333 94.5677 4.98C94.2131 4.73733 93.8024 4.616 93.3357 4.616C92.8784 4.616 92.4677 4.73267 92.1037 4.966C91.7491 5.19933 91.4691 5.52133 91.2637 5.932C91.0584 6.34267 90.9557 6.814 90.9557 7.346C90.9557 7.86867 91.0537 8.34 91.2497 8.76C91.4551 9.17067 91.7351 9.49733 92.0897 9.74C92.4537 9.98267 92.8691 10.104 93.3357 10.104ZM100.087 10.426C100.087 10.5847 100.031 10.72 99.9193 10.832C99.8073 10.944 99.672 11 99.5133 11C99.3547 11 99.224 10.944 99.1213 10.832C99.0187 10.72 98.9673 10.5847 98.9673 10.426V1.2C98.9673 1.04133 99.0187 0.910666 99.1213 0.807999C99.2333 0.696 99.3687 0.64 99.5273 0.64C99.6953 0.64 99.8307 0.696 99.9333 0.807999C100.036 0.910666 100.087 1.04133 100.087 1.2V10.426ZM103.492 10.426C103.492 10.5847 103.436 10.72 103.324 10.832C103.212 10.944 103.076 11 102.918 11C102.759 11 102.628 10.944 102.526 10.832C102.423 10.72 102.372 10.5847 102.372 10.426V1.2C102.372 1.04133 102.423 0.910666 102.526 0.807999C102.638 0.696 102.773 0.64 102.932 0.64C103.1 0.64 103.235 0.696 103.338 0.807999C103.44 0.910666 103.492 1.04133 103.492 1.2V10.426ZM108.873 11.14C108.127 11.14 107.473 10.9813 106.913 10.664C106.353 10.3467 105.915 9.91267 105.597 9.362C105.289 8.802 105.135 8.158 105.135 7.43C105.135 6.618 105.294 5.92733 105.611 5.358C105.938 4.77933 106.358 4.34067 106.871 4.042C107.394 3.734 107.945 3.58 108.523 3.58C108.953 3.58 109.368 3.65933 109.769 3.818C110.171 3.97667 110.525 4.21 110.833 4.518C111.141 4.81667 111.389 5.18067 111.575 5.61C111.762 6.03 111.86 6.50133 111.869 7.024C111.869 7.17333 111.813 7.29933 111.701 7.402C111.589 7.50467 111.459 7.556 111.309 7.556H105.779L105.527 6.59H110.917L110.693 6.786V6.478C110.656 6.09533 110.525 5.76867 110.301 5.498C110.087 5.218 109.821 5.00333 109.503 4.854C109.195 4.70467 108.869 4.63 108.523 4.63C108.243 4.63 107.963 4.68133 107.683 4.784C107.413 4.87733 107.165 5.036 106.941 5.26C106.727 5.47467 106.549 5.75467 106.409 6.1C106.279 6.44533 106.213 6.86067 106.213 7.346C106.213 7.88733 106.321 8.36333 106.535 8.774C106.759 9.18467 107.067 9.51133 107.459 9.754C107.851 9.98733 108.309 10.104 108.831 10.104C109.158 10.104 109.443 10.062 109.685 9.978C109.928 9.894 110.138 9.79133 110.315 9.67C110.493 9.53933 110.642 9.40867 110.763 9.278C110.885 9.194 111.001 9.152 111.113 9.152C111.253 9.152 111.365 9.19867 111.449 9.292C111.543 9.38533 111.589 9.49733 111.589 9.628C111.589 9.78667 111.515 9.92667 111.365 10.048C111.104 10.3373 110.749 10.594 110.301 10.818C109.853 11.0327 109.377 11.14 108.873 11.14ZM117.151 3.58C117.785 3.58 118.285 3.71067 118.649 3.972C119.013 4.23333 119.269 4.58333 119.419 5.022C119.577 5.46067 119.657 5.95067 119.657 6.492V10.426C119.657 10.5847 119.601 10.72 119.489 10.832C119.386 10.944 119.255 11 119.097 11C118.938 11 118.803 10.944 118.691 10.832C118.588 10.72 118.537 10.5847 118.537 10.426V6.52C118.537 6.16533 118.481 5.848 118.369 5.568C118.266 5.27867 118.089 5.05 117.837 4.882C117.594 4.70467 117.258 4.616 116.829 4.616C116.437 4.616 116.077 4.70467 115.751 4.882C115.424 5.05 115.163 5.27867 114.967 5.568C114.771 5.848 114.673 6.16533 114.673 6.52V10.426C114.673 10.5847 114.617 10.72 114.505 10.832C114.402 10.944 114.271 11 114.113 11C113.954 11 113.819 10.944 113.707 10.832C113.604 10.72 113.553 10.5847 113.553 10.426V4.322C113.553 4.16333 113.604 4.03267 113.707 3.93C113.819 3.818 113.954 3.762 114.113 3.762C114.281 3.762 114.416 3.818 114.519 3.93C114.621 4.03267 114.673 4.16333 114.673 4.322V5.316L114.393 5.624C114.439 5.38133 114.547 5.13867 114.715 4.896C114.883 4.644 115.093 4.42 115.345 4.224C115.597 4.028 115.877 3.874 116.185 3.762C116.493 3.64067 116.815 3.58 117.151 3.58ZM124.766 3.58C125.168 3.58 125.541 3.65 125.886 3.79C126.232 3.92067 126.53 4.09333 126.782 4.308C127.044 4.52267 127.244 4.74667 127.384 4.98C127.534 5.21333 127.608 5.43267 127.608 5.638L127.342 5.47V4.252C127.342 4.09333 127.394 3.96267 127.496 3.86C127.599 3.748 127.734 3.692 127.902 3.692C128.061 3.692 128.192 3.748 128.294 3.86C128.406 3.96267 128.462 4.09333 128.462 4.252V10.384C128.462 11.1493 128.299 11.784 127.972 12.288C127.655 12.792 127.226 13.17 126.684 13.422C126.143 13.674 125.536 13.8 124.864 13.8C124.584 13.8 124.276 13.7627 123.94 13.688C123.604 13.6133 123.306 13.52 123.044 13.408C122.783 13.3053 122.615 13.198 122.54 13.086C122.4 12.9927 122.312 12.8853 122.274 12.764C122.246 12.652 122.27 12.5447 122.344 12.442C122.428 12.3113 122.536 12.246 122.666 12.246C122.806 12.246 122.979 12.288 123.184 12.372C123.268 12.4 123.399 12.4467 123.576 12.512C123.763 12.5773 123.968 12.6333 124.192 12.68C124.426 12.736 124.654 12.764 124.878 12.764C125.672 12.764 126.278 12.554 126.698 12.134C127.128 11.7233 127.342 11.1773 127.342 10.496V9.194L127.496 9.264C127.44 9.52533 127.324 9.768 127.146 9.992C126.978 10.216 126.768 10.4167 126.516 10.594C126.274 10.762 126.003 10.8973 125.704 11C125.406 11.0933 125.102 11.14 124.794 11.14C124.141 11.14 123.553 10.9767 123.03 10.65C122.508 10.3233 122.092 9.87533 121.784 9.306C121.486 8.73667 121.336 8.088 121.336 7.36C121.336 6.62267 121.486 5.96933 121.784 5.4C122.092 4.83067 122.503 4.38733 123.016 4.07C123.539 3.74333 124.122 3.58 124.766 3.58ZM124.906 4.616C124.43 4.616 124.001 4.73733 123.618 4.98C123.245 5.21333 122.951 5.53533 122.736 5.946C122.531 6.35667 122.428 6.828 122.428 7.36C122.428 7.87333 122.531 8.34 122.736 8.76C122.951 9.17067 123.245 9.49733 123.618 9.74C124.001 9.98267 124.43 10.104 124.906 10.104C125.392 10.104 125.821 9.98733 126.194 9.754C126.568 9.51133 126.862 9.18467 127.076 8.774C127.291 8.36333 127.398 7.892 127.398 7.36C127.398 6.81867 127.291 6.34267 127.076 5.932C126.862 5.52133 126.568 5.19933 126.194 4.966C125.821 4.73267 125.392 4.616 124.906 4.616ZM133.606 11.14C132.859 11.14 132.206 10.9813 131.646 10.664C131.086 10.3467 130.647 9.91267 130.33 9.362C130.022 8.802 129.868 8.158 129.868 7.43C129.868 6.618 130.026 5.92733 130.344 5.358C130.67 4.77933 131.09 4.34067 131.604 4.042C132.126 3.734 132.677 3.58 133.256 3.58C133.685 3.58 134.1 3.65933 134.502 3.818C134.903 3.97667 135.258 4.21 135.566 4.518C135.874 4.81667 136.121 5.18067 136.308 5.61C136.494 6.03 136.592 6.50133 136.602 7.024C136.602 7.17333 136.546 7.29933 136.434 7.402C136.322 7.50467 136.191 7.556 136.042 7.556H130.512L130.26 6.59H135.65L135.426 6.786V6.478C135.388 6.09533 135.258 5.76867 135.034 5.498C134.819 5.218 134.553 5.00333 134.236 4.854C133.928 4.70467 133.601 4.63 133.256 4.63C132.976 4.63 132.696 4.68133 132.416 4.784C132.145 4.87733 131.898 5.036 131.674 5.26C131.459 5.47467 131.282 5.75467 131.142 6.1C131.011 6.44533 130.946 6.86067 130.946 7.346C130.946 7.88733 131.053 8.36333 131.268 8.774C131.492 9.18467 131.8 9.51133 132.192 9.754C132.584 9.98733 133.041 10.104 133.564 10.104C133.89 10.104 134.175 10.062 134.418 9.978C134.66 9.894 134.87 9.79133 135.048 9.67C135.225 9.53933 135.374 9.40867 135.496 9.278C135.617 9.194 135.734 9.152 135.846 9.152C135.986 9.152 136.098 9.19867 136.182 9.292C136.275 9.38533 136.322 9.49733 136.322 9.628C136.322 9.78667 136.247 9.92667 136.098 10.048C135.836 10.3373 135.482 10.594 135.034 10.818C134.586 11.0327 134.11 11.14 133.606 11.14ZM137.879 9.852C137.795 9.73067 137.758 9.60467 137.767 9.474C137.776 9.334 137.856 9.21267 138.005 9.11C138.098 9.04467 138.206 9.01667 138.327 9.026C138.458 9.03533 138.574 9.096 138.677 9.208C138.938 9.516 139.237 9.76333 139.573 9.95C139.909 10.1273 140.32 10.216 140.805 10.216C141.029 10.2067 141.253 10.1693 141.477 10.104C141.701 10.0387 141.888 9.92667 142.037 9.768C142.196 9.6 142.275 9.38067 142.275 9.11C142.275 8.84867 142.196 8.64333 142.037 8.494C141.878 8.33533 141.673 8.20933 141.421 8.116C141.169 8.01333 140.894 7.92467 140.595 7.85C140.287 7.766 139.984 7.67267 139.685 7.57C139.386 7.458 139.116 7.32267 138.873 7.164C138.64 6.996 138.448 6.79067 138.299 6.548C138.159 6.296 138.089 5.99267 138.089 5.638C138.089 5.218 138.201 4.854 138.425 4.546C138.658 4.238 138.966 4 139.349 3.832C139.741 3.664 140.166 3.58 140.623 3.58C140.884 3.58 141.155 3.61267 141.435 3.678C141.724 3.734 142.004 3.83667 142.275 3.986C142.546 4.126 142.784 4.322 142.989 4.574C143.073 4.66733 143.12 4.784 143.129 4.924C143.138 5.064 143.078 5.19 142.947 5.302C142.844 5.37667 142.728 5.40933 142.597 5.4C142.476 5.39067 142.373 5.344 142.289 5.26C142.093 5.02667 141.846 4.84933 141.547 4.728C141.258 4.59733 140.936 4.532 140.581 4.532C140.357 4.532 140.138 4.56467 139.923 4.63C139.708 4.69533 139.526 4.80733 139.377 4.966C139.237 5.11533 139.167 5.32533 139.167 5.596C139.176 5.848 139.26 6.05333 139.419 6.212C139.578 6.37067 139.792 6.50133 140.063 6.604C140.334 6.69733 140.632 6.79067 140.959 6.884C141.258 6.95867 141.542 7.04733 141.813 7.15C142.093 7.24333 142.345 7.36933 142.569 7.528C142.793 7.68667 142.97 7.892 143.101 8.144C143.232 8.38667 143.297 8.69467 143.297 9.068C143.297 9.49733 143.176 9.87067 142.933 10.188C142.69 10.496 142.368 10.734 141.967 10.902C141.575 11.0607 141.15 11.14 140.693 11.14C140.18 11.14 139.671 11.042 139.167 10.846C138.672 10.65 138.243 10.3187 137.879 9.852Z" fill="#17171A"/>
</svg>
