<svg width="154" height="12" viewBox="0 0 154 12" fill="none" xmlns="http://www.w3.org/2000/svg">
<path d="M4.54163 1.2C5.05497 1.2 5.51697 1.326 5.92763 1.578C6.3383 1.83 6.6603 2.17533 6.89363 2.614C7.1363 3.05267 7.25763 3.552 7.25763 4.112C7.25763 4.66267 7.1363 5.162 6.89363 5.61C6.6603 6.058 6.3383 6.41267 5.92763 6.674C5.51697 6.93533 5.05497 7.066 4.54163 7.066H1.69963L1.79763 6.898V10.426C1.79763 10.5847 1.7463 10.72 1.64363 10.832C1.54097 10.944 1.4103 11 1.25163 11C1.08363 11 0.9483 10.944 0.845633 10.832C0.7523 10.72 0.705633 10.5847 0.705633 10.426V1.76C0.705633 1.60133 0.756966 1.47067 0.859633 1.368C0.971633 1.256 1.10697 1.2 1.26563 1.2H4.54163ZM4.54163 5.988C4.84963 5.988 5.1203 5.904 5.35363 5.736C5.58697 5.568 5.77363 5.33933 5.91363 5.05C6.05363 4.76067 6.12363 4.448 6.12363 4.112C6.12363 3.75733 6.05363 3.44467 5.91363 3.174C5.77363 2.90333 5.58697 2.68867 5.35363 2.53C5.1203 2.362 4.84963 2.278 4.54163 2.278H1.69963L1.79763 2.124V6.128L1.69963 5.988H4.54163ZM9.45049 11C9.29183 11 9.15649 10.944 9.04449 10.832C8.94183 10.72 8.89049 10.5847 8.89049 10.426V4.322C8.89049 4.16333 8.94183 4.03267 9.04449 3.93C9.15649 3.818 9.29183 3.762 9.45049 3.762C9.61849 3.762 9.75383 3.818 9.85649 3.93C9.95916 4.03267 10.0105 4.16333 10.0105 4.322V6.17L9.84249 5.876C9.89849 5.58667 9.99649 5.30667 10.1365 5.036C10.2858 4.756 10.4725 4.50867 10.6965 4.294C10.9205 4.07 11.1772 3.89733 11.4665 3.776C11.7558 3.64533 12.0732 3.58 12.4185 3.58C12.6238 3.58 12.8105 3.63133 12.9785 3.734C13.1558 3.82733 13.2445 3.96267 13.2445 4.14C13.2445 4.336 13.1932 4.48067 13.0905 4.574C12.9878 4.66733 12.8712 4.714 12.7405 4.714C12.6192 4.714 12.5025 4.69067 12.3905 4.644C12.2785 4.588 12.1385 4.56 11.9705 4.56C11.7372 4.56 11.5038 4.62533 11.2705 4.756C11.0465 4.87733 10.8365 5.05467 10.6405 5.288C10.4538 5.52133 10.2998 5.78733 10.1785 6.086C10.0665 6.37533 10.0105 6.688 10.0105 7.024V10.426C10.0105 10.5847 9.95449 10.72 9.84249 10.832C9.73983 10.944 9.60916 11 9.45049 11ZM21.0692 7.36C21.0692 8.088 20.9058 8.73667 20.5792 9.306C20.2618 9.87533 19.8278 10.3233 19.2772 10.65C18.7358 10.9767 18.1245 11.14 17.4432 11.14C16.7618 11.14 16.1458 10.9767 15.5952 10.65C15.0445 10.3233 14.6058 9.87533 14.2792 9.306C13.9618 8.73667 13.8032 8.088 13.8032 7.36C13.8032 6.632 13.9618 5.98333 14.2792 5.414C14.6058 4.84467 15.0445 4.39667 15.5952 4.07C16.1458 3.74333 16.7618 3.58 17.4432 3.58C18.1245 3.58 18.7358 3.74333 19.2772 4.07C19.8278 4.39667 20.2618 4.84467 20.5792 5.414C20.9058 5.98333 21.0692 6.632 21.0692 7.36ZM19.9492 7.36C19.9492 6.81867 19.8372 6.34267 19.6132 5.932C19.3985 5.52133 19.0998 5.19933 18.7172 4.966C18.3438 4.73267 17.9192 4.616 17.4432 4.616C16.9672 4.616 16.5378 4.73267 16.1552 4.966C15.7818 5.19933 15.4832 5.52133 15.2592 5.932C15.0352 6.34267 14.9232 6.81867 14.9232 7.36C14.9232 7.892 15.0352 8.36333 15.2592 8.774C15.4832 9.18467 15.7818 9.51133 16.1552 9.754C16.5378 9.98733 16.9672 10.104 17.4432 10.104C17.9192 10.104 18.3438 9.98733 18.7172 9.754C19.0998 9.51133 19.3985 9.18467 19.6132 8.774C19.8372 8.36333 19.9492 7.892 19.9492 7.36ZM25.7778 0.668C25.9364 0.668 26.0998 0.686666 26.2678 0.724C26.4451 0.761333 26.5944 0.826666 26.7158 0.92C26.8464 1.01333 26.9118 1.13933 26.9118 1.298C26.9118 1.44733 26.8651 1.57333 26.7718 1.676C26.6784 1.76933 26.5664 1.816 26.4358 1.816C26.3518 1.816 26.2351 1.79267 26.0858 1.746C25.9364 1.69 25.7824 1.662 25.6238 1.662C25.4091 1.662 25.2318 1.70867 25.0918 1.802C24.9611 1.89533 24.8631 2.02133 24.7978 2.18C24.7418 2.32933 24.7138 2.49733 24.7138 2.684V10.426C24.7138 10.5847 24.6578 10.72 24.5458 10.832C24.4431 10.944 24.3124 11 24.1538 11C23.9858 11 23.8504 10.944 23.7478 10.832C23.6451 10.72 23.5938 10.5847 23.5938 10.426V2.698C23.5938 2.07267 23.7851 1.578 24.1678 1.214C24.5598 0.849999 25.0964 0.668 25.7778 0.668ZM26.1698 3.874C26.3191 3.874 26.4451 3.92533 26.5478 4.028C26.6504 4.12133 26.7018 4.24267 26.7018 4.392C26.7018 4.54133 26.6504 4.66733 26.5478 4.77C26.4451 4.86333 26.3191 4.91 26.1698 4.91H22.6558C22.5064 4.91 22.3804 4.85867 22.2778 4.756C22.1751 4.65333 22.1238 4.532 22.1238 4.392C22.1238 4.23333 22.1751 4.10733 22.2778 4.014C22.3804 3.92067 22.5064 3.874 22.6558 3.874H26.1698ZM31.008 11.14C30.2613 11.14 29.608 10.9813 29.048 10.664C28.488 10.3467 28.0493 9.91267 27.732 9.362C27.424 8.802 27.27 8.158 27.27 7.43C27.27 6.618 27.4286 5.92733 27.746 5.358C28.0726 4.77933 28.4926 4.34067 29.006 4.042C29.5286 3.734 30.0793 3.58 30.658 3.58C31.0873 3.58 31.5026 3.65933 31.904 3.818C32.3053 3.97667 32.66 4.21 32.968 4.518C33.276 4.81667 33.5233 5.18067 33.71 5.61C33.8966 6.03 33.9946 6.50133 34.004 7.024C34.004 7.17333 33.948 7.29933 33.836 7.402C33.724 7.50467 33.5933 7.556 33.444 7.556H27.914L27.662 6.59H33.052L32.828 6.786V6.478C32.7906 6.09533 32.66 5.76867 32.436 5.498C32.2213 5.218 31.9553 5.00333 31.638 4.854C31.33 4.70467 31.0033 4.63 30.658 4.63C30.378 4.63 30.098 4.68133 29.818 4.784C29.5473 4.87733 29.3 5.036 29.076 5.26C28.8613 5.47467 28.684 5.75467 28.544 6.1C28.4133 6.44533 28.348 6.86067 28.348 7.346C28.348 7.88733 28.4553 8.36333 28.67 8.774C28.894 9.18467 29.202 9.51133 29.594 9.754C29.986 9.98733 30.4433 10.104 30.966 10.104C31.2926 10.104 31.5773 10.062 31.82 9.978C32.0626 9.894 32.2726 9.79133 32.45 9.67C32.6273 9.53933 32.7766 9.40867 32.898 9.278C33.0193 9.194 33.136 9.152 33.248 9.152C33.388 9.152 33.5 9.19867 33.584 9.292C33.6773 9.38533 33.724 9.49733 33.724 9.628C33.724 9.78667 33.6493 9.92667 33.5 10.048C33.2386 10.3373 32.884 10.594 32.436 10.818C31.988 11.0327 31.512 11.14 31.008 11.14ZM35.2814 9.852C35.1974 9.73067 35.16 9.60467 35.1694 9.474C35.1787 9.334 35.258 9.21267 35.4074 9.11C35.5007 9.04467 35.608 9.01667 35.7294 9.026C35.86 9.03533 35.9767 9.096 36.0794 9.208C36.3407 9.516 36.6394 9.76333 36.9754 9.95C37.3114 10.1273 37.722 10.216 38.2074 10.216C38.4314 10.2067 38.6554 10.1693 38.8794 10.104C39.1034 10.0387 39.29 9.92667 39.4394 9.768C39.598 9.6 39.6774 9.38067 39.6774 9.11C39.6774 8.84867 39.598 8.64333 39.4394 8.494C39.2807 8.33533 39.0754 8.20933 38.8234 8.116C38.5714 8.01333 38.296 7.92467 37.9974 7.85C37.6894 7.766 37.386 7.67267 37.0874 7.57C36.7887 7.458 36.518 7.32267 36.2754 7.164C36.042 6.996 35.8507 6.79067 35.7014 6.548C35.5614 6.296 35.4914 5.99267 35.4914 5.638C35.4914 5.218 35.6034 4.854 35.8274 4.546C36.0607 4.238 36.3687 4 36.7514 3.832C37.1434 3.664 37.568 3.58 38.0254 3.58C38.2867 3.58 38.5574 3.61267 38.8374 3.678C39.1267 3.734 39.4067 3.83667 39.6774 3.986C39.948 4.126 40.186 4.322 40.3914 4.574C40.4754 4.66733 40.522 4.784 40.5314 4.924C40.5407 5.064 40.48 5.19 40.3494 5.302C40.2467 5.37667 40.13 5.40933 39.9994 5.4C39.878 5.39067 39.7754 5.344 39.6914 5.26C39.4954 5.02667 39.248 4.84933 38.9494 4.728C38.66 4.59733 38.338 4.532 37.9834 4.532C37.7594 4.532 37.54 4.56467 37.3254 4.63C37.1107 4.69533 36.9287 4.80733 36.7794 4.966C36.6394 5.11533 36.5694 5.32533 36.5694 5.596C36.5787 5.848 36.6627 6.05333 36.8214 6.212C36.98 6.37067 37.1947 6.50133 37.4654 6.604C37.736 6.69733 38.0347 6.79067 38.3614 6.884C38.66 6.95867 38.9447 7.04733 39.2154 7.15C39.4954 7.24333 39.7474 7.36933 39.9714 7.528C40.1954 7.68667 40.3727 7.892 40.5034 8.144C40.634 8.38667 40.6994 8.69467 40.6994 9.068C40.6994 9.49733 40.578 9.87067 40.3354 10.188C40.0927 10.496 39.7707 10.734 39.3694 10.902C38.9774 11.0607 38.5527 11.14 38.0954 11.14C37.582 11.14 37.0734 11.042 36.5694 10.846C36.0747 10.65 35.6454 10.3187 35.2814 9.852ZM41.9122 9.852C41.8282 9.73067 41.7909 9.60467 41.8002 9.474C41.8096 9.334 41.8889 9.21267 42.0382 9.11C42.1316 9.04467 42.2389 9.01667 42.3602 9.026C42.4909 9.03533 42.6076 9.096 42.7102 9.208C42.9716 9.516 43.2702 9.76333 43.6062 9.95C43.9422 10.1273 44.3529 10.216 44.8382 10.216C45.0622 10.2067 45.2862 10.1693 45.5102 10.104C45.7342 10.0387 45.9209 9.92667 46.0702 9.768C46.2289 9.6 46.3082 9.38067 46.3082 9.11C46.3082 8.84867 46.2289 8.64333 46.0702 8.494C45.9116 8.33533 45.7062 8.20933 45.4542 8.116C45.2022 8.01333 44.9269 7.92467 44.6282 7.85C44.3202 7.766 44.0169 7.67267 43.7182 7.57C43.4196 7.458 43.1489 7.32267 42.9062 7.164C42.6729 6.996 42.4816 6.79067 42.3322 6.548C42.1922 6.296 42.1222 5.99267 42.1222 5.638C42.1222 5.218 42.2342 4.854 42.4582 4.546C42.6916 4.238 42.9996 4 43.3822 3.832C43.7742 3.664 44.1989 3.58 44.6562 3.58C44.9176 3.58 45.1882 3.61267 45.4682 3.678C45.7576 3.734 46.0376 3.83667 46.3082 3.986C46.5789 4.126 46.8169 4.322 47.0222 4.574C47.1062 4.66733 47.1529 4.784 47.1622 4.924C47.1716 5.064 47.1109 5.19 46.9802 5.302C46.8776 5.37667 46.7609 5.40933 46.6302 5.4C46.5089 5.39067 46.4062 5.344 46.3222 5.26C46.1262 5.02667 45.8789 4.84933 45.5802 4.728C45.2909 4.59733 44.9689 4.532 44.6142 4.532C44.3902 4.532 44.1709 4.56467 43.9562 4.63C43.7416 4.69533 43.5596 4.80733 43.4102 4.966C43.2702 5.11533 43.2002 5.32533 43.2002 5.596C43.2096 5.848 43.2936 6.05333 43.4522 6.212C43.6109 6.37067 43.8256 6.50133 44.0962 6.604C44.3669 6.69733 44.6656 6.79067 44.9922 6.884C45.2909 6.95867 45.5756 7.04733 45.8462 7.15C46.1262 7.24333 46.3782 7.36933 46.6022 7.528C46.8262 7.68667 47.0036 7.892 47.1342 8.144C47.2649 8.38667 47.3302 8.69467 47.3302 9.068C47.3302 9.49733 47.2089 9.87067 46.9662 10.188C46.7236 10.496 46.4016 10.734 46.0002 10.902C45.6082 11.0607 45.1836 11.14 44.7262 11.14C44.2129 11.14 43.7042 11.042 43.2002 10.846C42.7056 10.65 42.2762 10.3187 41.9122 9.852ZM50.0271 10.426C50.0271 10.5847 49.9711 10.72 49.8591 10.832C49.7564 10.944 49.6258 11 49.4671 11C49.2991 11 49.1638 10.944 49.0611 10.832C48.9584 10.72 48.9071 10.5847 48.9071 10.426V4.21C48.9071 4.05133 48.9584 3.92067 49.0611 3.818C49.1731 3.706 49.3084 3.65 49.4671 3.65C49.6258 3.65 49.7564 3.706 49.8591 3.818C49.9711 3.92067 50.0271 4.05133 50.0271 4.21V10.426ZM49.4671 2.712C49.2338 2.712 49.0611 2.66533 48.9491 2.572C48.8371 2.47867 48.7811 2.334 48.7811 2.138V1.942C48.7811 1.746 48.8418 1.60133 48.9631 1.508C49.0844 1.41467 49.2571 1.368 49.4811 1.368C49.7051 1.368 49.8731 1.41467 49.9851 1.508C50.0971 1.60133 50.1531 1.746 50.1531 1.942V2.138C50.1531 2.334 50.0924 2.47867 49.9711 2.572C49.8591 2.66533 49.6911 2.712 49.4671 2.712ZM58.9129 7.36C58.9129 8.088 58.7496 8.73667 58.4229 9.306C58.1056 9.87533 57.6716 10.3233 57.1209 10.65C56.5796 10.9767 55.9683 11.14 55.2869 11.14C54.6056 11.14 53.9896 10.9767 53.4389 10.65C52.8883 10.3233 52.4496 9.87533 52.1229 9.306C51.8056 8.73667 51.6469 8.088 51.6469 7.36C51.6469 6.632 51.8056 5.98333 52.1229 5.414C52.4496 4.84467 52.8883 4.39667 53.4389 4.07C53.9896 3.74333 54.6056 3.58 55.2869 3.58C55.9683 3.58 56.5796 3.74333 57.1209 4.07C57.6716 4.39667 58.1056 4.84467 58.4229 5.414C58.7496 5.98333 58.9129 6.632 58.9129 7.36ZM57.7929 7.36C57.7929 6.81867 57.6809 6.34267 57.4569 5.932C57.2423 5.52133 56.9436 5.19933 56.5609 4.966C56.1876 4.73267 55.7629 4.616 55.2869 4.616C54.8109 4.616 54.3816 4.73267 53.9989 4.966C53.6256 5.19933 53.3269 5.52133 53.1029 5.932C52.8789 6.34267 52.7669 6.81867 52.7669 7.36C52.7669 7.892 52.8789 8.36333 53.1029 8.774C53.3269 9.18467 53.6256 9.51133 53.9989 9.754C54.3816 9.98733 54.8109 10.104 55.2869 10.104C55.7629 10.104 56.1876 9.98733 56.5609 9.754C56.9436 9.51133 57.2423 9.18467 57.4569 8.774C57.6809 8.36333 57.7929 7.892 57.7929 7.36ZM64.1955 3.58C64.8302 3.58 65.3295 3.71067 65.6935 3.972C66.0575 4.23333 66.3142 4.58333 66.4635 5.022C66.6222 5.46067 66.7015 5.95067 66.7015 6.492V10.426C66.7015 10.5847 66.6455 10.72 66.5335 10.832C66.4309 10.944 66.3002 11 66.1415 11C65.9829 11 65.8475 10.944 65.7355 10.832C65.6329 10.72 65.5815 10.5847 65.5815 10.426V6.52C65.5815 6.16533 65.5255 5.848 65.4135 5.568C65.3109 5.27867 65.1335 5.05 64.8815 4.882C64.6389 4.70467 64.3029 4.616 63.8735 4.616C63.4815 4.616 63.1222 4.70467 62.7955 4.882C62.4689 5.05 62.2075 5.27867 62.0115 5.568C61.8155 5.848 61.7175 6.16533 61.7175 6.52V10.426C61.7175 10.5847 61.6615 10.72 61.5495 10.832C61.4469 10.944 61.3162 11 61.1575 11C60.9989 11 60.8635 10.944 60.7515 10.832C60.6489 10.72 60.5975 10.5847 60.5975 10.426V4.322C60.5975 4.16333 60.6489 4.03267 60.7515 3.93C60.8635 3.818 60.9989 3.762 61.1575 3.762C61.3255 3.762 61.4609 3.818 61.5635 3.93C61.6662 4.03267 61.7175 4.16333 61.7175 4.322V5.316L61.4375 5.624C61.4842 5.38133 61.5915 5.13867 61.7595 4.896C61.9275 4.644 62.1375 4.42 62.3895 4.224C62.6415 4.028 62.9215 3.874 63.2295 3.762C63.5375 3.64067 63.8595 3.58 64.1955 3.58ZM74.7373 3.692C74.896 3.692 75.0266 3.748 75.1293 3.86C75.2413 3.96267 75.2973 4.09333 75.2973 4.252V10.426C75.2973 10.5847 75.2413 10.72 75.1293 10.832C75.0266 10.944 74.896 11 74.7373 11C74.5693 11 74.434 10.944 74.3313 10.832C74.2286 10.72 74.1773 10.5847 74.1773 10.426V9.096L74.4433 9.068C74.4433 9.27333 74.3733 9.49733 74.2333 9.74C74.0933 9.98267 73.902 10.2113 73.6593 10.426C73.4166 10.6313 73.1273 10.804 72.7913 10.944C72.4646 11.0747 72.11 11.14 71.7273 11.14C71.0926 11.14 70.5233 10.9767 70.0193 10.65C69.5153 10.314 69.114 9.86133 68.8153 9.292C68.526 8.72267 68.3813 8.074 68.3813 7.346C68.3813 6.60867 68.526 5.96 68.8153 5.4C69.114 4.83067 69.5153 4.38733 70.0193 4.07C70.5233 3.74333 71.0833 3.58 71.6993 3.58C72.1006 3.58 72.474 3.64533 72.8193 3.776C73.1646 3.90667 73.4633 4.084 73.7153 4.308C73.9766 4.532 74.1773 4.77933 74.3173 5.05C74.4666 5.32067 74.5413 5.59133 74.5413 5.862L74.1773 5.778V4.252C74.1773 4.09333 74.2286 3.96267 74.3313 3.86C74.434 3.748 74.5693 3.692 74.7373 3.692ZM71.8533 10.104C72.32 10.104 72.7306 9.98267 73.0853 9.74C73.4493 9.49733 73.7293 9.17067 73.9253 8.76C74.1306 8.34 74.2333 7.86867 74.2333 7.346C74.2333 6.83267 74.1306 6.37067 73.9253 5.96C73.7293 5.54 73.4493 5.21333 73.0853 4.98C72.7306 4.73733 72.32 4.616 71.8533 4.616C71.396 4.616 70.9853 4.73267 70.6213 4.966C70.2666 5.19933 69.9866 5.52133 69.7813 5.932C69.576 6.34267 69.4733 6.814 69.4733 7.346C69.4733 7.86867 69.5713 8.34 69.7673 8.76C69.9726 9.17067 70.2526 9.49733 70.6073 9.74C70.9713 9.98267 71.3866 10.104 71.8533 10.104ZM78.6049 10.426C78.6049 10.5847 78.5489 10.72 78.4369 10.832C78.3249 10.944 78.1896 11 78.0309 11C77.8722 11 77.7416 10.944 77.6389 10.832C77.5362 10.72 77.4849 10.5847 77.4849 10.426V1.2C77.4849 1.04133 77.5362 0.910666 77.6389 0.807999C77.7509 0.696 77.8862 0.64 78.0449 0.64C78.2129 0.64 78.3482 0.696 78.4509 0.807999C78.5536 0.910666 78.6049 1.04133 78.6049 1.2V10.426ZM88.2167 2.656L84.9267 10.664C84.8893 10.776 84.824 10.8647 84.7307 10.93C84.6373 10.9953 84.5393 11.028 84.4367 11.028C84.2593 11.028 84.1287 10.9813 84.0447 10.888C83.9607 10.7947 83.9187 10.6827 83.9187 10.552C83.9093 10.4867 83.9187 10.4167 83.9467 10.342L87.5727 1.522C87.6193 1.39133 87.6893 1.298 87.7827 1.242C87.8853 1.17667 87.9973 1.14867 88.1187 1.158C88.24 1.158 88.3473 1.19067 88.4407 1.256C88.5433 1.32133 88.6133 1.41 88.6507 1.522L92.2627 10.258C92.2907 10.3327 92.3047 10.4073 92.3047 10.482C92.3047 10.65 92.2487 10.7853 92.1367 10.888C92.0247 10.9813 91.8987 11.028 91.7587 11.028C91.6467 11.028 91.544 10.9953 91.4507 10.93C91.3573 10.8647 91.2873 10.7713 91.2407 10.65L87.9087 2.642L88.2167 2.656ZM85.6267 8.382L86.1027 7.29H90.2607L90.4707 8.382H85.6267ZM102.059 3.636C102.209 3.636 102.335 3.68733 102.437 3.79C102.549 3.89267 102.605 4.028 102.605 4.196C102.605 4.23333 102.601 4.27533 102.591 4.322C102.591 4.35933 102.582 4.39667 102.563 4.434L100.407 10.636C100.361 10.7573 100.281 10.8507 100.169 10.916C100.067 10.9813 99.9547 11.0093 99.8334 11C99.6187 10.9907 99.4554 10.8693 99.3434 10.636L97.5794 6.212L97.8594 6.254L96.2634 10.636C96.1607 10.8693 95.9974 10.9907 95.7734 11C95.6521 11.0093 95.5354 10.9813 95.4234 10.916C95.3114 10.8507 95.2367 10.7573 95.1994 10.636L93.0014 4.434C92.9734 4.35 92.9594 4.27067 92.9594 4.196C92.9594 4.04667 93.0107 3.916 93.1134 3.804C93.2161 3.692 93.3561 3.636 93.5334 3.636C93.6454 3.636 93.7481 3.664 93.8414 3.72C93.9347 3.776 94.0001 3.86467 94.0374 3.986L95.9274 9.502L95.6334 9.488L97.2714 5.288C97.3647 5.05467 97.5374 4.938 97.7894 4.938C97.9201 4.938 98.0227 4.97067 98.0974 5.036C98.1814 5.092 98.2421 5.176 98.2794 5.288L99.9874 9.488L99.6374 9.516L101.527 3.986C101.611 3.75267 101.789 3.636 102.059 3.636ZM110.134 3.692C110.292 3.692 110.423 3.748 110.526 3.86C110.638 3.96267 110.694 4.09333 110.694 4.252V10.426C110.694 10.5847 110.638 10.72 110.526 10.832C110.423 10.944 110.292 11 110.134 11C109.966 11 109.83 10.944 109.728 10.832C109.625 10.72 109.574 10.5847 109.574 10.426V9.096L109.84 9.068C109.84 9.27333 109.77 9.49733 109.63 9.74C109.49 9.98267 109.298 10.2113 109.056 10.426C108.813 10.6313 108.524 10.804 108.188 10.944C107.861 11.0747 107.506 11.14 107.124 11.14C106.489 11.14 105.92 10.9767 105.416 10.65C104.912 10.314 104.51 9.86133 104.212 9.292C103.922 8.72267 103.778 8.074 103.778 7.346C103.778 6.60867 103.922 5.96 104.212 5.4C104.51 4.83067 104.912 4.38733 105.416 4.07C105.92 3.74333 106.48 3.58 107.096 3.58C107.497 3.58 107.87 3.64533 108.216 3.776C108.561 3.90667 108.86 4.084 109.112 4.308C109.373 4.532 109.574 4.77933 109.714 5.05C109.863 5.32067 109.938 5.59133 109.938 5.862L109.574 5.778V4.252C109.574 4.09333 109.625 3.96267 109.728 3.86C109.83 3.748 109.966 3.692 110.134 3.692ZM107.25 10.104C107.716 10.104 108.127 9.98267 108.482 9.74C108.846 9.49733 109.126 9.17067 109.322 8.76C109.527 8.34 109.63 7.86867 109.63 7.346C109.63 6.83267 109.527 6.37067 109.322 5.96C109.126 5.54 108.846 5.21333 108.482 4.98C108.127 4.73733 107.716 4.616 107.25 4.616C106.792 4.616 106.382 4.73267 106.018 4.966C105.663 5.19933 105.383 5.52133 105.178 5.932C104.972 6.34267 104.87 6.814 104.87 7.346C104.87 7.86867 104.968 8.34 105.164 8.76C105.369 9.17067 105.649 9.49733 106.004 9.74C106.368 9.98267 106.783 10.104 107.25 10.104ZM113.329 11C113.171 11 113.035 10.944 112.923 10.832C112.821 10.72 112.769 10.5847 112.769 10.426V4.322C112.769 4.16333 112.821 4.03267 112.923 3.93C113.035 3.818 113.171 3.762 113.329 3.762C113.497 3.762 113.633 3.818 113.735 3.93C113.838 4.03267 113.889 4.16333 113.889 4.322V6.17L113.721 5.876C113.777 5.58667 113.875 5.30667 114.015 5.036C114.165 4.756 114.351 4.50867 114.575 4.294C114.799 4.07 115.056 3.89733 115.345 3.776C115.635 3.64533 115.952 3.58 116.297 3.58C116.503 3.58 116.689 3.63133 116.857 3.734C117.035 3.82733 117.123 3.96267 117.123 4.14C117.123 4.336 117.072 4.48067 116.969 4.574C116.867 4.66733 116.75 4.714 116.619 4.714C116.498 4.714 116.381 4.69067 116.269 4.644C116.157 4.588 116.017 4.56 115.849 4.56C115.616 4.56 115.383 4.62533 115.149 4.756C114.925 4.87733 114.715 5.05467 114.519 5.288C114.333 5.52133 114.179 5.78733 114.057 6.086C113.945 6.37533 113.889 6.688 113.889 7.024V10.426C113.889 10.5847 113.833 10.72 113.721 10.832C113.619 10.944 113.488 11 113.329 11ZM121.42 11.14C120.673 11.14 120.02 10.9813 119.46 10.664C118.9 10.3467 118.461 9.91267 118.144 9.362C117.836 8.802 117.682 8.158 117.682 7.43C117.682 6.618 117.841 5.92733 118.158 5.358C118.485 4.77933 118.905 4.34067 119.418 4.042C119.941 3.734 120.491 3.58 121.07 3.58C121.499 3.58 121.915 3.65933 122.316 3.818C122.717 3.97667 123.072 4.21 123.38 4.518C123.688 4.81667 123.935 5.18067 124.122 5.61C124.309 6.03 124.407 6.50133 124.416 7.024C124.416 7.17333 124.36 7.29933 124.248 7.402C124.136 7.50467 124.005 7.556 123.856 7.556H118.326L118.074 6.59H123.464L123.24 6.786V6.478C123.203 6.09533 123.072 5.76867 122.848 5.498C122.633 5.218 122.367 5.00333 122.05 4.854C121.742 4.70467 121.415 4.63 121.07 4.63C120.79 4.63 120.51 4.68133 120.23 4.784C119.959 4.87733 119.712 5.036 119.488 5.26C119.273 5.47467 119.096 5.75467 118.956 6.1C118.825 6.44533 118.76 6.86067 118.76 7.346C118.76 7.88733 118.867 8.36333 119.082 8.774C119.306 9.18467 119.614 9.51133 120.006 9.754C120.398 9.98733 120.855 10.104 121.378 10.104C121.705 10.104 121.989 10.062 122.232 9.978C122.475 9.894 122.685 9.79133 122.862 9.67C123.039 9.53933 123.189 9.40867 123.31 9.278C123.431 9.194 123.548 9.152 123.66 9.152C123.8 9.152 123.912 9.19867 123.996 9.292C124.089 9.38533 124.136 9.49733 124.136 9.628C124.136 9.78667 124.061 9.92667 123.912 10.048C123.651 10.3373 123.296 10.594 122.848 10.818C122.4 11.0327 121.924 11.14 121.42 11.14ZM129.697 3.58C130.332 3.58 130.831 3.71067 131.195 3.972C131.559 4.23333 131.816 4.58333 131.965 5.022C132.124 5.46067 132.203 5.95067 132.203 6.492V10.426C132.203 10.5847 132.147 10.72 132.035 10.832C131.933 10.944 131.802 11 131.643 11C131.485 11 131.349 10.944 131.237 10.832C131.135 10.72 131.083 10.5847 131.083 10.426V6.52C131.083 6.16533 131.027 5.848 130.915 5.568C130.813 5.27867 130.635 5.05 130.383 4.882C130.141 4.70467 129.805 4.616 129.375 4.616C128.983 4.616 128.624 4.70467 128.297 4.882C127.971 5.05 127.709 5.27867 127.513 5.568C127.317 5.848 127.219 6.16533 127.219 6.52V10.426C127.219 10.5847 127.163 10.72 127.051 10.832C126.949 10.944 126.818 11 126.659 11C126.501 11 126.365 10.944 126.253 10.832C126.151 10.72 126.099 10.5847 126.099 10.426V4.322C126.099 4.16333 126.151 4.03267 126.253 3.93C126.365 3.818 126.501 3.762 126.659 3.762C126.827 3.762 126.963 3.818 127.065 3.93C127.168 4.03267 127.219 4.16333 127.219 4.322V5.316L126.939 5.624C126.986 5.38133 127.093 5.13867 127.261 4.896C127.429 4.644 127.639 4.42 127.891 4.224C128.143 4.028 128.423 3.874 128.731 3.762C129.039 3.64067 129.361 3.58 129.697 3.58ZM137.621 11.14C136.875 11.14 136.221 10.9813 135.661 10.664C135.101 10.3467 134.663 9.91267 134.345 9.362C134.037 8.802 133.883 8.158 133.883 7.43C133.883 6.618 134.042 5.92733 134.359 5.358C134.686 4.77933 135.106 4.34067 135.619 4.042C136.142 3.734 136.693 3.58 137.271 3.58C137.701 3.58 138.116 3.65933 138.517 3.818C138.919 3.97667 139.273 4.21 139.581 4.518C139.889 4.81667 140.137 5.18067 140.323 5.61C140.51 6.03 140.608 6.50133 140.617 7.024C140.617 7.17333 140.561 7.29933 140.449 7.402C140.337 7.50467 140.207 7.556 140.057 7.556H134.527L134.275 6.59H139.665L139.441 6.786V6.478C139.404 6.09533 139.273 5.76867 139.049 5.498C138.835 5.218 138.569 5.00333 138.251 4.854C137.943 4.70467 137.617 4.63 137.271 4.63C136.991 4.63 136.711 4.68133 136.431 4.784C136.161 4.87733 135.913 5.036 135.689 5.26C135.475 5.47467 135.297 5.75467 135.157 6.1C135.027 6.44533 134.961 6.86067 134.961 7.346C134.961 7.88733 135.069 8.36333 135.283 8.774C135.507 9.18467 135.815 9.51133 136.207 9.754C136.599 9.98733 137.057 10.104 137.579 10.104C137.906 10.104 138.191 10.062 138.433 9.978C138.676 9.894 138.886 9.79133 139.063 9.67C139.241 9.53933 139.39 9.40867 139.511 9.278C139.633 9.194 139.749 9.152 139.861 9.152C140.001 9.152 140.113 9.19867 140.197 9.292C140.291 9.38533 140.337 9.49733 140.337 9.628C140.337 9.78667 140.263 9.92667 140.113 10.048C139.852 10.3373 139.497 10.594 139.049 10.818C138.601 11.0327 138.125 11.14 137.621 11.14ZM141.895 9.852C141.811 9.73067 141.773 9.60467 141.783 9.474C141.792 9.334 141.871 9.21267 142.021 9.11C142.114 9.04467 142.221 9.01667 142.343 9.026C142.473 9.03533 142.59 9.096 142.693 9.208C142.954 9.516 143.253 9.76333 143.589 9.95C143.925 10.1273 144.335 10.216 144.821 10.216C145.045 10.2067 145.269 10.1693 145.493 10.104C145.717 10.0387 145.903 9.92667 146.053 9.768C146.211 9.6 146.291 9.38067 146.291 9.11C146.291 8.84867 146.211 8.64333 146.053 8.494C145.894 8.33533 145.689 8.20933 145.437 8.116C145.185 8.01333 144.909 7.92467 144.611 7.85C144.303 7.766 143.999 7.67267 143.701 7.57C143.402 7.458 143.131 7.32267 142.889 7.164C142.655 6.996 142.464 6.79067 142.315 6.548C142.175 6.296 142.105 5.99267 142.105 5.638C142.105 5.218 142.217 4.854 142.441 4.546C142.674 4.238 142.982 4 143.365 3.832C143.757 3.664 144.181 3.58 144.639 3.58C144.9 3.58 145.171 3.61267 145.451 3.678C145.74 3.734 146.02 3.83667 146.291 3.986C146.561 4.126 146.799 4.322 147.005 4.574C147.089 4.66733 147.135 4.784 147.145 4.924C147.154 5.064 147.093 5.19 146.963 5.302C146.86 5.37667 146.743 5.40933 146.613 5.4C146.491 5.39067 146.389 5.344 146.305 5.26C146.109 5.02667 145.861 4.84933 145.563 4.728C145.273 4.59733 144.951 4.532 144.597 4.532C144.373 4.532 144.153 4.56467 143.939 4.63C143.724 4.69533 143.542 4.80733 143.393 4.966C143.253 5.11533 143.183 5.32533 143.183 5.596C143.192 5.848 143.276 6.05333 143.435 6.212C143.593 6.37067 143.808 6.50133 144.079 6.604C144.349 6.69733 144.648 6.79067 144.975 6.884C145.273 6.95867 145.558 7.04733 145.829 7.15C146.109 7.24333 146.361 7.36933 146.585 7.528C146.809 7.68667 146.986 7.892 147.117 8.144C147.247 8.38667 147.313 8.69467 147.313 9.068C147.313 9.49733 147.191 9.87067 146.949 10.188C146.706 10.496 146.384 10.734 145.983 10.902C145.591 11.0607 145.166 11.14 144.709 11.14C144.195 11.14 143.687 11.042 143.183 10.846C142.688 10.65 142.259 10.3187 141.895 9.852ZM148.526 9.852C148.442 9.73067 148.404 9.60467 148.414 9.474C148.423 9.334 148.502 9.21267 148.652 9.11C148.745 9.04467 148.852 9.01667 148.974 9.026C149.104 9.03533 149.221 9.096 149.324 9.208C149.585 9.516 149.884 9.76333 150.22 9.95C150.556 10.1273 150.966 10.216 151.452 10.216C151.676 10.2067 151.9 10.1693 152.124 10.104C152.348 10.0387 152.534 9.92667 152.684 9.768C152.842 9.6 152.922 9.38067 152.922 9.11C152.922 8.84867 152.842 8.64333 152.684 8.494C152.525 8.33533 152.32 8.20933 152.068 8.116C151.816 8.01333 151.54 7.92467 151.242 7.85C150.934 7.766 150.63 7.67267 150.332 7.57C150.033 7.458 149.762 7.32267 149.52 7.164C149.286 6.996 149.095 6.79067 148.946 6.548C148.806 6.296 148.736 5.99267 148.736 5.638C148.736 5.218 148.848 4.854 149.072 4.546C149.305 4.238 149.613 4 149.996 3.832C150.388 3.664 150.812 3.58 151.27 3.58C151.531 3.58 151.802 3.61267 152.082 3.678C152.371 3.734 152.651 3.83667 152.922 3.986C153.192 4.126 153.43 4.322 153.636 4.574C153.72 4.66733 153.766 4.784 153.776 4.924C153.785 5.064 153.724 5.19 153.594 5.302C153.491 5.37667 153.374 5.40933 153.244 5.4C153.122 5.39067 153.02 5.344 152.936 5.26C152.74 5.02667 152.492 4.84933 152.194 4.728C151.904 4.59733 151.582 4.532 151.228 4.532C151.004 4.532 150.784 4.56467 150.57 4.63C150.355 4.69533 150.173 4.80733 150.024 4.966C149.884 5.11533 149.814 5.32533 149.814 5.596C149.823 5.848 149.907 6.05333 150.066 6.212C150.224 6.37067 150.439 6.50133 150.71 6.604C150.98 6.69733 151.279 6.79067 151.606 6.884C151.904 6.95867 152.189 7.04733 152.46 7.15C152.74 7.24333 152.992 7.36933 153.216 7.528C153.44 7.68667 153.617 7.892 153.748 8.144C153.878 8.38667 153.944 8.69467 153.944 9.068C153.944 9.49733 153.822 9.87067 153.58 10.188C153.337 10.496 153.015 10.734 152.614 10.902C152.222 11.0607 151.797 11.14 151.34 11.14C150.826 11.14 150.318 11.042 149.814 10.846C149.319 10.65 148.89 10.3187 148.526 9.852Z" fill="#17171A"/>
</svg>
